<?xml version="1.0" encoding="us-ascii" standalone="no"?><svg xmlns="http://www.w3.org/2000/svg" xmlns:xlink="http://www.w3.org/1999/xlink" contentStyleType="text/css" height="572px" preserveAspectRatio="none" style="width:875px;height:572px;background:#FFFFFF;" version="1.1" viewBox="0 0 875 572" width="875px" zoomAndPan="magnify"><defs/><g><!--class AppInstanceCollection--><g id="elem_AppInstanceCollection"><rect codeLine="2" fill="#F1F1F1" height="113.1875" id="AppInstanceCollection" rx="2.5" ry="2.5" style="stroke:#181818;stroke-width:0.5;" width="383" x="58.5" y="15.15"/><ellipse cx="168.75" cy="31.15" fill="#ADD1B2" rx="11" ry="11" style="stroke:#181818;stroke-width:1.0;"/><path d="M171.7188,36.7906 Q171.1406,37.0875 170.5,37.2281 Q169.8594,37.3844 169.1563,37.3844 Q166.6563,37.3844 165.3281,35.7437 Q164.0156,34.0875 164.0156,30.9625 Q164.0156,27.8375 165.3281,26.1812 Q166.6563,24.525 169.1563,24.525 Q169.8594,24.525 170.5,24.6812 Q171.1563,24.8375 171.7188,25.1344 L171.7188,27.8531 Q171.0938,27.275 170.5,27.0094 Q169.9063,26.7281 169.2813,26.7281 Q167.9375,26.7281 167.25,27.8062 Q166.5625,28.8687 166.5625,30.9625 Q166.5625,33.0562 167.25,34.1344 Q167.9375,35.1969 169.2813,35.1969 Q169.9063,35.1969 170.5,34.9312 Q171.0938,34.65 171.7188,34.0719 L171.7188,36.7906 Z " fill="#000000"/><text fill="#000000" font-family="sans-serif" font-size="14" lengthAdjust="spacing" textLength="154" x="189.25" y="35.9967">AppInstanceCollection</text><line style="stroke:#181818;stroke-width:0.5;" x1="59.5" x2="440.5" y1="47.15" y2="47.15"/><line style="stroke:#181818;stroke-width:0.5;" x1="59.5" x2="440.5" y1="55.15" y2="55.15"/><text fill="#000000" font-family="sans-serif" font-size="14" lengthAdjust="spacing" textLength="371" x="64.5" y="72.1451">-generateInstances(userID: String, numInstances: int)</text><text fill="#000000" font-family="sans-serif" font-size="14" lengthAdjust="spacing" textLength="170" x="64.5" y="88.442">+getNumInstances(): int</text><text fill="#000000" font-family="sans-serif" font-size="14" lengthAdjust="spacing" textLength="239" x="64.5" y="104.7389">+getApplicationBase(): Application</text><text fill="#000000" font-family="sans-serif" font-size="14" lengthAdjust="spacing" textLength="293" x="64.5" y="121.0357">+getInstance(nInstance: int): AppInstance</text></g><!--class AppInstance--><g id="elem_AppInstance"><rect codeLine="10" fill="#F1F1F1" height="162.0781" id="AppInstance" rx="2.5" ry="2.5" style="stroke:#181818;stroke-width:0.5;" width="356" x="7" y="213.48"/><ellipse cx="137.75" cy="229.48" fill="#ADD1B2" rx="11" ry="11" style="stroke:#181818;stroke-width:1.0;"/><path d="M140.7188,235.1206 Q140.1406,235.4175 139.5,235.5581 Q138.8594,235.7144 138.1563,235.7144 Q135.6563,235.7144 134.3281,234.0738 Q133.0156,232.4175 133.0156,229.2925 Q133.0156,226.1675 134.3281,224.5113 Q135.6563,222.855 138.1563,222.855 Q138.8594,222.855 139.5,223.0113 Q140.1563,223.1675 140.7188,223.4644 L140.7188,226.1831 Q140.0938,225.605 139.5,225.3394 Q138.9063,225.0581 138.2813,225.0581 Q136.9375,225.0581 136.25,226.1363 Q135.5625,227.1988 135.5625,229.2925 Q135.5625,231.3863 136.25,232.4644 Q136.9375,233.5269 138.2813,233.5269 Q138.9063,233.5269 139.5,233.2613 Q140.0938,232.98 140.7188,232.4019 L140.7188,235.1206 Z " fill="#000000"/><text fill="#000000" font-family="sans-serif" font-size="14" lengthAdjust="spacing" textLength="86" x="158.25" y="234.3267">AppInstance</text><line style="stroke:#181818;stroke-width:0.5;" x1="8" x2="362" y1="245.48" y2="245.48"/><text fill="#000000" font-family="sans-serif" font-size="14" lengthAdjust="spacing" textLength="120" x="13" y="262.4751">-appName: String</text><text fill="#000000" font-family="sans-serif" font-size="14" lengthAdjust="spacing" textLength="145" x="13" y="278.772">-instanceNumber: int</text><text fill="#000000" font-family="sans-serif" font-size="14" lengthAdjust="spacing" textLength="165" x="13" y="295.0689">-state: tApplicationState</text><text fill="#000000" font-family="sans-serif" font-size="14" lengthAdjust="spacing" textLength="99" x="13" y="311.3657">-userID: String</text><text fill="#000000" font-family="sans-serif" font-size="14" lengthAdjust="spacing" textLength="147" x="13" y="327.6626">-vmInstanceID: String</text><text fill="#000000" font-family="sans-serif" font-size="14" lengthAdjust="spacing" textLength="153" x="13" y="343.9595">-appInstanceID: String</text><line style="stroke:#181818;stroke-width:0.5;" x1="8" x2="362" y1="351.2613" y2="351.2613"/><text fill="#000000" font-family="sans-serif" font-size="14" lengthAdjust="spacing" textLength="344" x="13" y="368.2564">-stateToString(appState: tApplicationState): String</text></g><!--class Application--><g id="elem_Application"><rect codeLine="21" fill="#F1F1F1" height="129.4844" id="Application" rx="2.5" ry="2.5" style="stroke:#181818;stroke-width:0.5;" width="470" x="398" y="229.78"/><ellipse cx="591.25" cy="245.78" fill="#ADD1B2" rx="11" ry="11" style="stroke:#181818;stroke-width:1.0;"/><path d="M594.2188,251.4206 Q593.6406,251.7175 593,251.8581 Q592.3594,252.0144 591.6563,252.0144 Q589.1563,252.0144 587.8281,250.3737 Q586.5156,248.7175 586.5156,245.5925 Q586.5156,242.4675 587.8281,240.8112 Q589.1563,239.155 591.6563,239.155 Q592.3594,239.155 593,239.3112 Q593.6563,239.4675 594.2188,239.7644 L594.2188,242.4831 Q593.5938,241.905 593,241.6394 Q592.4063,241.3581 591.7813,241.3581 Q590.4375,241.3581 589.75,242.4362 Q589.0625,243.4987 589.0625,245.5925 Q589.0625,247.6862 589.75,248.7644 Q590.4375,249.8269 591.7813,249.8269 Q592.4063,249.8269 593,249.5612 Q593.5938,249.28 594.2188,248.7019 L594.2188,251.4206 Z " fill="#000000"/><text fill="#000000" font-family="sans-serif" font-size="14" lengthAdjust="spacing" textLength="75" x="611.75" y="250.6267">Application</text><line style="stroke:#181818;stroke-width:0.5;" x1="399" x2="867" y1="261.78" y2="261.78"/><text fill="#000000" font-family="sans-serif" font-size="14" lengthAdjust="spacing" textLength="84" x="404" y="278.7751">-type: String</text><text fill="#000000" font-family="sans-serif" font-size="14" lengthAdjust="spacing" textLength="120" x="404" y="295.072">-appName: String</text><line style="stroke:#181818;stroke-width:0.5;" x1="399" x2="867" y1="302.3738" y2="302.3738"/><text fill="#000000" font-family="sans-serif" font-size="14" lengthAdjust="spacing" textLength="286" x="404" y="319.3689">+getParameter(index: int): AppParameter</text><text fill="#000000" font-family="sans-serif" font-size="14" lengthAdjust="spacing" textLength="282" x="404" y="335.6657">+insertParameter(param: AppParameter)</text><text fill="#000000" font-family="sans-serif" font-size="14" lengthAdjust="spacing" textLength="458" x="404" y="351.9626">+getParameterByName(strParameterName: String): AppParameter</text></g><!--class AppParameter--><g id="elem_AppParameter"><rect codeLine="30" fill="#F1F1F1" height="113.1875" id="AppParameter" rx="2.5" ry="2.5" style="stroke:#181818;stroke-width:0.5;" width="130" x="568" y="452.56"/><ellipse cx="583" cy="468.56" fill="#ADD1B2" rx="11" ry="11" style="stroke:#181818;stroke-width:1.0;"/><path d="M585.9688,474.2006 Q585.3906,474.4975 584.75,474.6381 Q584.1094,474.7944 583.4063,474.7944 Q580.9063,474.7944 579.5781,473.1538 Q578.2656,471.4975 578.2656,468.3725 Q578.2656,465.2475 579.5781,463.5913 Q580.9063,461.935 583.4063,461.935 Q584.1094,461.935 584.75,462.0913 Q585.4063,462.2475 585.9688,462.5444 L585.9688,465.2631 Q585.3438,464.685 584.75,464.4194 Q584.1563,464.1381 583.5313,464.1381 Q582.1875,464.1381 581.5,465.2163 Q580.8125,466.2788 580.8125,468.3725 Q580.8125,470.4663 581.5,471.5444 Q582.1875,472.6069 583.5313,472.6069 Q584.1563,472.6069 584.75,472.3413 Q585.3438,472.06 585.9688,471.4819 L585.9688,474.2006 Z " fill="#000000"/><text fill="#000000" font-family="sans-serif" font-size="14" lengthAdjust="spacing" textLength="98" x="597" y="473.4067">AppParameter</text><line style="stroke:#181818;stroke-width:0.5;" x1="569" x2="697" y1="484.56" y2="484.56"/><text fill="#000000" font-family="sans-serif" font-size="14" lengthAdjust="spacing" textLength="93" x="574" y="501.5551">-name: String</text><text fill="#000000" font-family="sans-serif" font-size="14" lengthAdjust="spacing" textLength="111" x="574" y="517.852">-type: tNedType</text><text fill="#000000" font-family="sans-serif" font-size="14" lengthAdjust="spacing" textLength="80" x="574" y="534.1489">-unit: String</text><text fill="#000000" font-family="sans-serif" font-size="14" lengthAdjust="spacing" textLength="90" x="574" y="550.4457">-value: String</text><line style="stroke:#181818;stroke-width:0.5;" x1="569" x2="697" y1="557.7475" y2="557.7475"/></g><!--class tNedType--><g id="elem_tNedType"><rect codeLine="38" fill="#F1F1F1" height="129.4844" id="tNedType" rx="2.5" ry="2.5" style="stroke:#181818;stroke-width:0.5;" width="99" x="476.5" y="7"/><ellipse cx="491.5" cy="23" fill="#EB937F" rx="11" ry="11" style="stroke:#181818;stroke-width:1.0;"/><path d="M495.6094,29 L487.8906,29 L487.8906,16.6094 L495.6094,16.6094 L495.6094,18.7656 L490.3438,18.7656 L490.3438,21.4375 L495.1094,21.4375 L495.1094,23.5938 L490.3438,23.5938 L490.3438,26.8438 L495.6094,26.8438 L495.6094,29 Z " fill="#000000"/><text fill="#000000" font-family="sans-serif" font-size="14" lengthAdjust="spacing" textLength="67" x="505.5" y="27.8467">tNedType</text><line style="stroke:#181818;stroke-width:0.5;" x1="477.5" x2="574.5" y1="39" y2="39"/><text fill="#000000" font-family="sans-serif" font-size="14" lengthAdjust="spacing" textLength="69" x="482.5" y="55.9951">NedUnset</text><text fill="#000000" font-family="sans-serif" font-size="14" lengthAdjust="spacing" textLength="45" x="482.5" y="72.292">NedInt</text><text fill="#000000" font-family="sans-serif" font-size="14" lengthAdjust="spacing" textLength="59" x="482.5" y="88.5889">NedBool</text><text fill="#000000" font-family="sans-serif" font-size="14" lengthAdjust="spacing" textLength="68" x="482.5" y="104.8857">NedString</text><text fill="#000000" font-family="sans-serif" font-size="14" lengthAdjust="spacing" textLength="78" x="482.5" y="121.1826">NedDouble</text><line style="stroke:#181818;stroke-width:0.5;" x1="477.5" x2="574.5" y1="128.4844" y2="128.4844"/></g><!--class tApplicationState--><g id="elem_tApplicationState"><rect codeLine="47" fill="#F1F1F1" height="129.4844" id="tApplicationState" rx="2.5" ry="2.5" style="stroke:#181818;stroke-width:0.5;" width="153" x="610.5" y="7"/><ellipse cx="627.75" cy="23" fill="#EB937F" rx="11" ry="11" style="stroke:#181818;stroke-width:1.0;"/><path d="M631.8594,29 L624.1406,29 L624.1406,16.6094 L631.8594,16.6094 L631.8594,18.7656 L626.5938,18.7656 L626.5938,21.4375 L631.3594,21.4375 L631.3594,23.5938 L626.5938,23.5938 L626.5938,26.8438 L631.8594,26.8438 L631.8594,29 Z " fill="#000000"/><text fill="#000000" font-family="sans-serif" font-size="14" lengthAdjust="spacing" textLength="116" x="642.25" y="27.8467">tApplicationState</text><line style="stroke:#181818;stroke-width:0.5;" x1="611.5" x2="762.5" y1="39" y2="39"/><text fill="#000000" font-family="sans-serif" font-size="14" lengthAdjust="spacing" textLength="76" x="616.5" y="55.9951">appWaiting</text><text fill="#000000" font-family="sans-serif" font-size="14" lengthAdjust="spacing" textLength="84" x="616.5" y="72.292">appRunning</text><text fill="#000000" font-family="sans-serif" font-size="14" lengthAdjust="spacing" textLength="104" x="616.5" y="88.5889">appFinishedOK</text><text fill="#000000" font-family="sans-serif" font-size="14" lengthAdjust="spacing" textLength="141" x="616.5" y="104.8857">appFinishedTimeout</text><text fill="#000000" font-family="sans-serif" font-size="14" lengthAdjust="spacing" textLength="117" x="616.5" y="121.1826">appFinishedError</text><line style="stroke:#181818;stroke-width:0.5;" x1="611.5" x2="762.5" y1="128.4844" y2="128.4844"/></g><!--reverse link Application to AppParameter--><g id="link_Application_AppParameter"><path codeLine="56" d="M633,371.61 C633,401.08 633,423.72 633,452.13 " fill="none" id="Application-backto-AppParameter" style="stroke:#181818;stroke-width:1.0;"/><polygon fill="#181818" points="633,359.61,629,365.61,633,371.61,637,365.61,633,359.61" style="stroke:#181818;stroke-width:1.0;"/><text fill="#000000" font-family="sans-serif" font-size="13" lengthAdjust="spacing" textLength="129" x="638" y="418.6269">instanceParameters</text><text fill="#000000" font-family="sans-serif" font-size="13" lengthAdjust="spacing" textLength="8" x="624.5875" y="379.1694">1</text><text fill="#000000" font-family="sans-serif" font-size="13" lengthAdjust="spacing" textLength="23" x="608.5984" y="441.3412">0..*</text></g><!--link AppInstanceCollection to AppInstance--><g id="link_AppInstanceCollection_AppInstance"><path codeLine="57" d="M233.51,128.74 C225.99,154.29 216.94,185.02 208.71,212.99 " fill="none" id="AppInstanceCollection-AppInstance" style="stroke:#181818;stroke-width:1.0;"/><text fill="#000000" font-family="sans-serif" font-size="13" lengthAdjust="spacing" textLength="85" x="227" y="179.5469">appInstances</text><text fill="#000000" font-family="sans-serif" font-size="13" lengthAdjust="spacing" textLength="8" x="223.1408" y="148.272">1</text><text fill="#000000" font-family="sans-serif" font-size="13" lengthAdjust="spacing" textLength="23" x="186.7593" y="202.4117">1..*</text></g><!--link AppInstanceCollection to Application--><g id="link_AppInstanceCollection_Application"><path codeLine="58" d="M347.14,128.74 C400.33,159.4 466.46,197.52 521.72,229.38 " fill="none" id="AppInstanceCollection-Application" style="stroke:#181818;stroke-width:1.0;"/><text fill="#000000" font-family="sans-serif" font-size="13" lengthAdjust="spacing" textLength="56" x="446" y="179.5469">appBase</text><text fill="#000000" font-family="sans-serif" font-size="13" lengthAdjust="spacing" textLength="23" x="334.0421" y="148.272">1..*</text><text fill="#000000" font-family="sans-serif" font-size="13" lengthAdjust="spacing" textLength="8" x="501.1113" y="218.5089">1</text></g><!--SRC=[VLDDJyCm3BtdLqGzjODDsxKtna2ga0QYGvoppXeHdLCbAM9C_7USz2lTW5ESP_lPpt7CkyHAQ77WHIcCkR5Mosrj8IiKvl8B-9nv1x-fgWoD5LZ0hIfBAAnKo4violU0e0Mbj6uJrmPqjafvJcIul-PO7tfdoYNQX5rHcbq7U9nuJ-EWOgKiX2kn50QSBu2Qc2upnivggDEmLVRDBlltNOkgMei3T4qI8bitTRK5tNGpvOHPYWfRoXr4hh5C0ZvwEIDO3AL7kAVUgEOUKrJ-HwsaJmhbzEDmSkonWd79aJe_iIVtpc11nn9ty1cCg_TG88q1T13hjsCSbPpnBO-kM6oixg6m-dcDKCI0EXKuVf56b5t3RaEMcpXA6yvRb3M4im7Qj27-nCXw8JdM6HdwOwbKwSusYQoLghSb3EaNBtrYDCvN8QrB8FEvHcpDUudIlC7kyI6yRUG1L6r3w4vhvPK7x3nQH7modV9eFfjDej4uKXxr2zc39cA_VaDFv7WM7KyNmnrFi7__CFXKJnA5szKnk7yO_G00]--></g></svg>