<?xml version="1.0" encoding="windows-1252" standalone="no"?>
<svg xmlns="http://www.w3.org/2000/svg" xmlns:xlink="http://www.w3.org/1999/xlink" contentStyleType="text/css" height="911px" preserveAspectRatio="none" style="width:1241px;height:911px;background:#FFFFFF;" version="1.1" viewBox="0 0 1241 911" width="1241px" zoomAndPan="magnify"><defs/><g><!--class DataCentre--><g id="elem_DataCentre"><rect codeLine="4" fill="#F1F1F1" height="145.7813" id="DataCentre" rx="2.5" ry="2.5" style="stroke:#181818;stroke-width:0.5;" width="278" x="956.5" y="23.3"/><ellipse cx="1051.75" cy="39.3" fill="#ADD1B2" rx="11" ry="11" style="stroke:#181818;stroke-width:1.0;"/><path d="M1054.7188,44.9406 Q1054.1406,45.2375 1053.5,45.3781 Q1052.8594,45.5344 1052.1563,45.5344 Q1049.6563,45.5344 1048.3281,43.8937 Q1047.0156,42.2375 1047.0156,39.1125 Q1047.0156,35.9875 1048.3281,34.3312 Q1049.6563,32.675 1052.1563,32.675 Q1052.8594,32.675 1053.5,32.8312 Q1054.1563,32.9875 1054.7188,33.2844 L1054.7188,36.0031 Q1054.0938,35.425 1053.5,35.1594 Q1052.9063,34.8781 1052.2813,34.8781 Q1050.9375,34.8781 1050.25,35.9562 Q1049.5625,37.0187 1049.5625,39.1125 Q1049.5625,41.2062 1050.25,42.2844 Q1050.9375,43.3469 1052.2813,43.3469 Q1052.9063,43.3469 1053.5,43.0812 Q1054.0938,42.8 1054.7188,42.2219 L1054.7188,44.9406 Z " fill="#000000"/><text fill="#000000" font-family="sans-serif" font-size="14" lengthAdjust="spacing" textLength="79" x="1072.25" y="44.1467">DataCentre</text><line style="stroke:#181818;stroke-width:0.5;" x1="957.5" x2="1233.5" y1="55.3" y2="55.3"/><text fill="#000000" font-family="sans-serif" font-size="14" lengthAdjust="spacing" textLength="93" x="962.5" y="72.2951">-name: String</text><text fill="#000000" font-family="sans-serif" font-size="14" lengthAdjust="spacing" textLength="174" x="962.5" y="88.592">-computingRacks[]: Rack</text><text fill="#000000" font-family="sans-serif" font-size="14" lengthAdjust="spacing" textLength="153" x="962.5" y="104.8889">-storageRacks[]: Rack</text><line style="stroke:#181818;stroke-width:0.5;" x1="957.5" x2="1233.5" y1="112.1906" y2="112.1906"/><text fill="#000000" font-family="sans-serif" font-size="14" lengthAdjust="spacing" textLength="266" x="962.5" y="129.1857">+addRack(rack: Rack, isStorage: bool)</text><text fill="#000000" font-family="sans-serif" font-size="14" lengthAdjust="spacing" textLength="249" x="962.5" y="145.4826">+getRack(int index, isStorage: bool)</text><text fill="#000000" font-family="sans-serif" font-size="14" lengthAdjust="spacing" textLength="249" x="962.5" y="161.7795">+getNumRacks(isStorage: bool): int</text></g><!--class DataCentre_CpuType--><g id="elem_DataCentre_CpuType"><rect codeLine="14" fill="#F1F1F1" height="210.9688" id="DataCentre_CpuType" rx="2.5" ry="2.5" style="stroke:#181818;stroke-width:0.5;" width="810" x="13.5" y="608.05"/><ellipse cx="340.25" cy="624.05" fill="#ADD1B2" rx="11" ry="11" style="stroke:#181818;stroke-width:1.0;"/><path d="M343.2188,629.6906 Q342.6406,629.9875 342,630.1281 Q341.3594,630.2844 340.6563,630.2844 Q338.1563,630.2844 336.8281,628.6438 Q335.5156,626.9875 335.5156,623.8625 Q335.5156,620.7375 336.8281,619.0813 Q338.1563,617.425 340.6563,617.425 Q341.3594,617.425 342,617.5813 Q342.6563,617.7375 343.2188,618.0344 L343.2188,620.7531 Q342.5938,620.175 342,619.9094 Q341.4063,619.6281 340.7813,619.6281 Q339.4375,619.6281 338.75,620.7063 Q338.0625,621.7688 338.0625,623.8625 Q338.0625,625.9563 338.75,627.0344 Q339.4375,628.0969 340.7813,628.0969 Q341.4063,628.0969 342,627.8313 Q342.5938,627.55 343.2188,626.9719 L343.2188,629.6906 Z " fill="#000000"/><text fill="#000000" font-family="sans-serif" font-size="14" lengthAdjust="spacing" textLength="148" x="360.75" y="628.8967">DataCentre_CpuType</text><line style="stroke:#181818;stroke-width:0.5;" x1="14.5" x2="822.5" y1="640.05" y2="640.05"/><text fill="#000000" font-family="sans-serif" font-size="14" lengthAdjust="spacing" textLength="93" x="19.5" y="657.0451">-name: String</text><text fill="#000000" font-family="sans-serif" font-size="14" lengthAdjust="spacing" textLength="174" x="19.5" y="673.342">-nTotalAvailableCores: int</text><text fill="#000000" font-family="sans-serif" font-size="14" lengthAdjust="spacing" textLength="115" x="19.5" y="689.6389">-nTotalCores: int</text><line style="stroke:#181818;stroke-width:0.5;" x1="14.5" x2="822.5" y1="696.9406" y2="696.9406"/><text fill="#000000" font-family="sans-serif" font-size="14" lengthAdjust="spacing" textLength="456" x="19.5" y="713.9357">-getNodeListByCores(int numCores): Vector&lt;NodeResourceInfo&gt;</text><text fill="#000000" font-family="sans-serif" font-size="14" lengthAdjust="spacing" textLength="487" x="19.5" y="730.2326">-getFreeNodeListByCores(int numCores): Vector&lt;NodeResourceInfo&gt;</text><text fill="#000000" font-family="sans-serif" font-size="14" lengthAdjust="spacing" textLength="798" x="19.5" y="746.5295">-allocNewResources(pVmRequest: NodeResourceRequest, pList: Vector&lt;NodeResourceInfo&gt;): NodeResourceInfo</text><text fill="#000000" font-family="sans-serif" font-size="14" lengthAdjust="spacing" textLength="403" x="19.5" y="762.8264">+insertNode(newNode: NodeResourceInfo, numCpus: int)</text><text fill="#000000" font-family="sans-serif" font-size="14" lengthAdjust="spacing" textLength="412" x="19.5" y="779.1232">+handleVmRequest(pVmRequest: NodeResourceRequest)</text><text fill="#000000" font-family="sans-serif" font-size="14" lengthAdjust="spacing" textLength="451" x="19.5" y="795.4201">+freeVmFromNode(strVmId: String, pResInfo: NodeResourceInfo)</text><text fill="#000000" font-family="sans-serif" font-size="14" lengthAdjust="spacing" textLength="570" x="19.5" y="811.717">+findResourceIndex(pList: Vector&lt;NodeResourceInfo&gt;, strResourceId: String): int</text></g><!--class Vector--><g id="elem_Vector"><rect codeLine="27" fill="#F1F1F1" height="56.2656" id="Vector" rx="2.5" ry="2.5" style="stroke:#181818;stroke-width:0.5;" width="77" x="150" y="68.06"/><ellipse cx="165" cy="88.1928" fill="#ADD1B2" rx="11" ry="11" style="stroke:#181818;stroke-width:1.0;"/><path d="M167.9688,93.8334 Q167.3906,94.1303 166.75,94.2709 Q166.1094,94.4272 165.4063,94.4272 Q162.9063,94.4272 161.5781,92.7866 Q160.2656,91.1303 160.2656,88.0053 Q160.2656,84.8803 161.5781,83.2241 Q162.9063,81.5678 165.4063,81.5678 Q166.1094,81.5678 166.75,81.7241 Q167.4063,81.8803 167.9688,82.1772 L167.9688,84.8959 Q167.3438,84.3178 166.75,84.0522 Q166.1563,83.7709 165.5313,83.7709 Q164.1875,83.7709 163.5,84.8491 Q162.8125,85.9116 162.8125,88.0053 Q162.8125,90.0991 163.5,91.1772 Q164.1875,92.2397 165.5313,92.2397 Q166.1563,92.2397 166.75,91.9741 Q167.3438,91.6928 167.9688,91.1147 L167.9688,93.8334 Z " fill="#000000"/><text fill="#000000" font-family="sans-serif" font-size="12" font-style="italic" lengthAdjust="spacing" textLength="35" x="184" y="84.1987">«STL»</text><text fill="#000000" font-family="sans-serif" font-size="14" lengthAdjust="spacing" textLength="45" x="179" y="100.0239">Vector</text><line style="stroke:#181818;stroke-width:0.5;" x1="151" x2="226" y1="108.3256" y2="108.3256"/><line style="stroke:#181818;stroke-width:0.5;" x1="151" x2="226" y1="116.3256" y2="116.3256"/></g><!--class NodeResourceInfo--><g id="elem_NodeResourceInfo"><rect codeLine="28" fill="#F1F1F1" height="48" id="NodeResourceInfo" rx="2.5" ry="2.5" style="stroke:#181818;stroke-width:0.5;" width="161" x="262" y="72.19"/><ellipse cx="277" cy="88.19" fill="#ADD1B2" rx="11" ry="11" style="stroke:#181818;stroke-width:1.0;"/><path d="M279.9688,93.8306 Q279.3906,94.1275 278.75,94.2681 Q278.1094,94.4244 277.4063,94.4244 Q274.9063,94.4244 273.5781,92.7837 Q272.2656,91.1275 272.2656,88.0025 Q272.2656,84.8775 273.5781,83.2212 Q274.9063,81.565 277.4063,81.565 Q278.1094,81.565 278.75,81.7212 Q279.4063,81.8775 279.9688,82.1744 L279.9688,84.8931 Q279.3438,84.315 278.75,84.0494 Q278.1563,83.7681 277.5313,83.7681 Q276.1875,83.7681 275.5,84.8462 Q274.8125,85.9087 274.8125,88.0025 Q274.8125,90.0962 275.5,91.1744 Q276.1875,92.2369 277.5313,92.2369 Q278.1563,92.2369 278.75,91.9712 Q279.3438,91.69 279.9688,91.1119 L279.9688,93.8306 Z " fill="#000000"/><text fill="#000000" font-family="sans-serif" font-size="14" lengthAdjust="spacing" textLength="129" x="291" y="93.0367">NodeResourceInfo</text><line style="stroke:#181818;stroke-width:0.5;" x1="263" x2="422" y1="104.19" y2="104.19"/><line style="stroke:#181818;stroke-width:0.5;" x1="263" x2="422" y1="112.19" y2="112.19"/></g><g id="elem_NMAP"><path d="M6,879.02 L6,904.1528 L373,904.1528 L373,889.02 L363,879.02 L6,879.02 " fill="#FEFFDD" style="stroke:#181818;stroke-width:0.5;"/><path d="M363,879.02 L363,889.02 L373,889.02 L363,879.02 " fill="#FEFFDD" style="stroke:#181818;stroke-width:1.0;"/><text fill="#000000" font-family="sans-serif" font-size="13" lengthAdjust="spacing" textLength="346" x="12" y="896.0869">Both maps are organized by the number of CPU cores</text></g><!--class IDataCentreCollection--><g id="elem_IDataCentreCollection"><rect codeLine="37" fill="#F1F1F1" height="178.375" id="IDataCentreCollection" rx="2.5" ry="2.5" style="stroke:#181818;stroke-width:0.5;" width="463" x="458" y="7"/><ellipse cx="610.25" cy="23" fill="#B4A7E5" rx="11" ry="11" style="stroke:#181818;stroke-width:1.0;"/><path d="M606.1719,18.7656 L606.1719,16.6094 L613.5625,16.6094 L613.5625,18.7656 L611.0938,18.7656 L611.0938,26.8438 L613.5625,26.8438 L613.5625,29 L606.1719,29 L606.1719,26.8438 L608.6406,26.8438 L608.6406,18.7656 L606.1719,18.7656 Z " fill="#000000"/><text fill="#000000" font-family="sans-serif" font-size="14" font-style="italic" lengthAdjust="spacing" textLength="150" x="630.75" y="27.8467">IDataCentreCollection</text><line style="stroke:#181818;stroke-width:0.5;" x1="459" x2="920" y1="39" y2="39"/><line style="stroke:#181818;stroke-width:0.5;" x1="459" x2="920" y1="47" y2="47"/><text fill="#000000" font-family="sans-serif" font-size="14" lengthAdjust="spacing" textLength="76" x="464" y="63.9951">+initialize()</text><text fill="#000000" font-family="sans-serif" font-size="14" lengthAdjust="spacing" textLength="288" x="464" y="80.292">+isCloudFull(nRequestedCores: int): bool</text><text fill="#000000" font-family="sans-serif" font-size="14" lengthAdjust="spacing" textLength="402" x="464" y="96.5889">+insertNode(nDatacentre: int, pNode: NodeResourceInfo)</text><text fill="#000000" font-family="sans-serif" font-size="14" lengthAdjust="spacing" textLength="451" x="464" y="112.8857">+handleVmRequest(pVmRequest: NodeResourceRequest): bool</text><text fill="#000000" font-family="sans-serif" font-size="14" lengthAdjust="spacing" textLength="270" x="464" y="129.1826">+freeVmRequest(strVmId: String): bool</text><text fill="#000000" font-family="sans-serif" font-size="14" lengthAdjust="spacing" textLength="205" x="464" y="145.4795">+getTotalAvailableCores(): int</text><text fill="#000000" font-family="sans-serif" font-size="14" lengthAdjust="spacing" textLength="146" x="464" y="161.7764">+getTotalCores(): int</text><text fill="#000000" font-family="sans-serif" font-size="14" lengthAdjust="spacing" textLength="103" x="464" y="178.0732">+printDCSize()</text></g><!--class DataCentreInfoCollection--><g id="elem_DataCentreInfoCollection"><rect codeLine="49" fill="#F1F1F1" height="178.375" id="DataCentreInfoCollection" rx="2.5" ry="2.5" style="stroke:#181818;stroke-width:0.5;" width="463" x="394" y="245.38"/><ellipse cx="535.25" cy="261.38" fill="#ADD1B2" rx="11" ry="11" style="stroke:#181818;stroke-width:1.0;"/><path d="M538.2188,267.0206 Q537.6406,267.3175 537,267.4581 Q536.3594,267.6144 535.6563,267.6144 Q533.1563,267.6144 531.8281,265.9738 Q530.5156,264.3175 530.5156,261.1925 Q530.5156,258.0675 531.8281,256.4113 Q533.1563,254.755 535.6563,254.755 Q536.3594,254.755 537,254.9113 Q537.6563,255.0675 538.2188,255.3644 L538.2188,258.0831 Q537.5938,257.505 537,257.2394 Q536.4063,256.9581 535.7813,256.9581 Q534.4375,256.9581 533.75,258.0363 Q533.0625,259.0988 533.0625,261.1925 Q533.0625,263.2863 533.75,264.3644 Q534.4375,265.4269 535.7813,265.4269 Q536.4063,265.4269 537,265.1613 Q537.5938,264.88 538.2188,264.3019 L538.2188,267.0206 Z " fill="#000000"/><text fill="#000000" font-family="sans-serif" font-size="14" lengthAdjust="spacing" textLength="172" x="555.75" y="266.2267">DataCentreInfoCollection</text><line style="stroke:#181818;stroke-width:0.5;" x1="395" x2="856" y1="277.38" y2="277.38"/><line style="stroke:#181818;stroke-width:0.5;" x1="395" x2="856" y1="285.38" y2="285.38"/><text fill="#000000" font-family="sans-serif" font-size="14" lengthAdjust="spacing" textLength="76" x="400" y="302.3751">+initialize()</text><text fill="#000000" font-family="sans-serif" font-size="14" lengthAdjust="spacing" textLength="288" x="400" y="318.672">+isCloudFull(nRequestedCores: int): bool</text><text fill="#000000" font-family="sans-serif" font-size="14" lengthAdjust="spacing" textLength="402" x="400" y="334.9689">+insertNode(nDatacentre: int, pNode: NodeResourceInfo)</text><text fill="#000000" font-family="sans-serif" font-size="14" lengthAdjust="spacing" textLength="451" x="400" y="351.2657">+handleVmRequest(pVmRequest: NodeResourceRequest): bool</text><text fill="#000000" font-family="sans-serif" font-size="14" lengthAdjust="spacing" textLength="270" x="400" y="367.5626">+freeVmRequest(strVmId: String): bool</text><text fill="#000000" font-family="sans-serif" font-size="14" lengthAdjust="spacing" textLength="205" x="400" y="383.8595">+getTotalAvailableCores(): int</text><text fill="#000000" font-family="sans-serif" font-size="14" lengthAdjust="spacing" textLength="146" x="400" y="400.1564">+getTotalCores(): int</text><text fill="#000000" font-family="sans-serif" font-size="14" lengthAdjust="spacing" textLength="103" x="400" y="416.4532">+printDCSize()</text></g><!--class DataCentreReservation--><g id="elem_DataCentreReservation"><rect codeLine="64" fill="#F1F1F1" height="64.2969" id="DataCentreReservation" rx="2.5" ry="2.5" style="stroke:#181818;stroke-width:0.5;" width="193" x="999" y="302.42"/><ellipse cx="1014" cy="318.42" fill="#ADD1B2" rx="11" ry="11" style="stroke:#181818;stroke-width:1.0;"/><path d="M1016.9688,324.0606 Q1016.3906,324.3575 1015.75,324.4981 Q1015.1094,324.6544 1014.4063,324.6544 Q1011.9063,324.6544 1010.5781,323.0137 Q1009.2656,321.3575 1009.2656,318.2325 Q1009.2656,315.1075 1010.5781,313.4512 Q1011.9063,311.795 1014.4063,311.795 Q1015.1094,311.795 1015.75,311.9512 Q1016.4063,312.1075 1016.9688,312.4044 L1016.9688,315.1231 Q1016.3438,314.545 1015.75,314.2794 Q1015.1563,313.9981 1014.5313,313.9981 Q1013.1875,313.9981 1012.5,315.0762 Q1011.8125,316.1387 1011.8125,318.2325 Q1011.8125,320.3262 1012.5,321.4044 Q1013.1875,322.4669 1014.5313,322.4669 Q1015.1563,322.4669 1015.75,322.2012 Q1016.3438,321.92 1016.9688,321.3419 L1016.9688,324.0606 Z " fill="#000000"/><text fill="#000000" font-family="sans-serif" font-size="14" lengthAdjust="spacing" textLength="161" x="1028" y="323.2667">DataCentreReservation</text><line style="stroke:#181818;stroke-width:0.5;" x1="1000" x2="1191" y1="334.42" y2="334.42"/><text fill="#000000" font-family="sans-serif" font-size="14" lengthAdjust="spacing" textLength="151" x="1005" y="351.4151">-nReservedNodes: int</text><line style="stroke:#181818;stroke-width:0.5;" x1="1000" x2="1191" y1="358.7169" y2="358.7169"/></g><!--class DataCentreInfoCollectionReservation--><g id="elem_DataCentreInfoCollectionReservation"><rect codeLine="70" fill="#F1F1F1" height="64.2969" id="DataCentreInfoCollectionReservation" rx="2.5" ry="2.5" style="stroke:#181818;stroke-width:0.5;" width="286" x="275.5" y="483.75"/><ellipse cx="290.5" cy="499.75" fill="#ADD1B2" rx="11" ry="11" style="stroke:#181818;stroke-width:1.0;"/><path d="M293.4688,505.3906 Q292.8906,505.6875 292.25,505.8281 Q291.6094,505.9844 290.9063,505.9844 Q288.4063,505.9844 287.0781,504.3438 Q285.7656,502.6875 285.7656,499.5625 Q285.7656,496.4375 287.0781,494.7813 Q288.4063,493.125 290.9063,493.125 Q291.6094,493.125 292.25,493.2813 Q292.9063,493.4375 293.4688,493.7344 L293.4688,496.4531 Q292.8438,495.875 292.25,495.6094 Q291.6563,495.3281 291.0313,495.3281 Q289.6875,495.3281 289,496.4063 Q288.3125,497.4688 288.3125,499.5625 Q288.3125,501.6563 289,502.7344 Q289.6875,503.7969 291.0313,503.7969 Q291.6563,503.7969 292.25,503.5313 Q292.8438,503.25 293.4688,502.6719 L293.4688,505.3906 Z " fill="#000000"/><text fill="#000000" font-family="sans-serif" font-size="14" lengthAdjust="spacing" textLength="254" x="304.5" y="504.5967">DataCentreInfoCollectionReservation</text><line style="stroke:#181818;stroke-width:0.5;" x1="276.5" x2="560.5" y1="515.75" y2="515.75"/><text fill="#000000" font-family="sans-serif" font-size="14" lengthAdjust="spacing" textLength="147" x="281.5" y="532.7451">-reservedNodes[]: int</text><line style="stroke:#181818;stroke-width:0.5;" x1="276.5" x2="560.5" y1="540.0469" y2="540.0469"/></g><!--link DataCentre_CpuType to Vector--><g id="link_DataCentre_CpuType_Vector"><path codeLine="31" d="M175.67,595.76 C175.67,450.35 175.67,215.11 175.67,130.57 " fill="none" id="DataCentre_CpuType-Vector" style="stroke:#181818;stroke-width:1.0;"/><polygon fill="none" points="175.67,607.76,179.67,601.76,175.67,595.76,171.67,601.76,175.67,607.76" style="stroke:#181818;stroke-width:1.0;"/><polygon fill="#181818" points="175.67,124.57,171.67,133.57,175.67,129.57,179.67,133.57,175.67,124.57" style="stroke:#181818;stroke-width:1.0;"/><text fill="#000000" font-family="sans-serif" font-size="13" lengthAdjust="spacing" textLength="79" x="95.67" y="362.2369">- mapNodes</text></g><!--link DataCentre_CpuType to Vector--><g id="link_DataCentre_CpuType_Vector"><path codeLine="32" d="M201.33,595.76 C201.33,450.35 201.33,215.11 201.33,130.57 " fill="none" id="DataCentre_CpuType-Vector-1" style="stroke:#181818;stroke-width:1.0;"/><polygon fill="none" points="201.33,607.76,205.33,601.76,201.33,595.76,197.33,601.76,201.33,607.76" style="stroke:#181818;stroke-width:1.0;"/><polygon fill="#181818" points="201.33,124.57,197.33,133.57,201.33,129.57,205.33,133.57,201.33,124.57" style="stroke:#181818;stroke-width:1.0;"/><text fill="#000000" font-family="sans-serif" font-size="13" lengthAdjust="spacing" textLength="107" x="93.33" y="379.2369">- mapFreeNodes</text></g><!--reverse link Vector to NodeResourceInfo--><g id="link_Vector_NodeResourceInfo"><path codeLine="33" d="M239.36,97.15 C249.87,97.15 249.66,97.15 261.57,97.15 " fill="none" id="Vector-backto-NodeResourceInfo" style="stroke:#181818;stroke-width:1.0;"/><polygon fill="none" points="227.36,97.15,233.36,101.15,239.36,97.15,233.36,93.15,227.36,97.15" style="stroke:#181818;stroke-width:1.0;"/></g><!--link DataCentre_CpuType to NMAP--><g id="link_DataCentre_CpuType_NMAP"><path codeLine="34" d="M193.25,819.42 C193.25,843.17 193.25,865.25 193.25,878.58 " fill="none" id="DataCentre_CpuType-NMAP" style="stroke:#181818;stroke-width:1.0;stroke-dasharray:7.0,7.0;"/></g><!--link NMAP to Vector--><g id="link_NMAP_Vector"><path codeLine="35" d="M9.75,878.78 C9.75,776.6 9.75,97.15 9.75,97.15 C9.75,97.15 97.14,97.15 149.71,97.15 " fill="none" id="NMAP-Vector" style="stroke:#181818;stroke-width:1.0;stroke-dasharray:7.0,7.0;"/></g><!--reverse link IDataCentreCollection to DataCentreInfoCollection--><g id="link_IDataCentreCollection_DataCentreInfoCollection"><path codeLine="60" d="M657.5,203.63 C657.5,223.05 657.5,225.59 657.5,245.02 " fill="none" id="IDataCentreCollection-backto-DataCentreInfoCollection" style="stroke:#181818;stroke-width:1.0;"/><polygon fill="none" points="657.5,185.63,651.5,203.63,663.5,203.63,657.5,185.63" style="stroke:#181818;stroke-width:1.0;"/></g><!--reverse link NodeResourceInfo to DataCentreInfoCollection--><g id="link_NodeResourceInfo_DataCentreInfoCollection"><path codeLine="61" d="M408.5,126.36 C408.5,155.53 408.5,200.27 408.5,245.04 " fill="none" id="NodeResourceInfo-backto-DataCentreInfoCollection" style="stroke:#181818;stroke-width:1.0;"/><polygon fill="#181818" points="408.5,120.36,404.5,129.36,408.5,125.36,412.5,129.36,408.5,120.36" style="stroke:#181818;stroke-width:1.0;"/><text fill="#000000" font-family="sans-serif" font-size="13" lengthAdjust="spacing" textLength="87" x="320.5" y="178.7669">- id2nodeMap</text></g><!--link DataCentreInfoCollection to DataCentre_CpuType--><g id="link_DataCentreInfoCollection_DataCentre_CpuType"><path codeLine="62" d="M692.5,423.89 C692.5,478.93 692.5,543.78 692.5,601.64 " fill="none" id="DataCentreInfoCollection-to-DataCentre_CpuType" style="stroke:#181818;stroke-width:1.0;"/><polygon fill="#181818" points="692.5,607.64,696.5,598.64,692.5,602.64,688.5,598.64,692.5,607.64" style="stroke:#181818;stroke-width:1.0;"/><text fill="#000000" font-family="sans-serif" font-size="13" lengthAdjust="spacing" textLength="88" x="603.5" y="511.8369">- dataCentres</text></g><!--reverse link DataCentre to DataCentreReservation--><g id="link_DataCentre_DataCentreReservation"><path codeLine="68" d="M1095.5,187.33 C1095.5,231.67 1095.5,268.06 1095.5,302.03 " fill="none" id="DataCentre-backto-DataCentreReservation" style="stroke:#181818;stroke-width:1.0;"/><polygon fill="none" points="1095.5,169.33,1089.5,187.33,1101.5,187.33,1095.5,169.33" style="stroke:#181818;stroke-width:1.0;"/></g><!--reverse link DataCentreInfoCollection to DataCentreInfoCollectionReservation--><g id="link_DataCentreInfoCollection_DataCentreInfoCollectionReservation"><path codeLine="74" d="M477.75,442.17 C477.75,463.41 477.75,466.72 477.75,483.45 " fill="none" id="DataCentreInfoCollection-backto-DataCentreInfoCollectionReservation" style="stroke:#181818;stroke-width:1.0;"/><polygon fill="none" points="477.75,424.17,471.75,442.17,483.75,442.17,477.75,424.17" style="stroke:#181818;stroke-width:1.0;"/></g><!--link DataCentreInfoCollectionReservation to DataCentre_CpuType--><g id="link_DataCentreInfoCollectionReservation_DataCentre_CpuType"><path codeLine="75" d="M418.5,560.54 C418.5,577.09 418.5,580.23 418.5,601.81 " fill="none" id="DataCentreInfoCollectionReservation-DataCentre_CpuType" style="stroke:#181818;stroke-width:1.0;"/><polygon fill="none" points="418.5,548.54,414.5,554.54,418.5,560.54,422.5,554.54,418.5,548.54" style="stroke:#181818;stroke-width:1.0;"/><polygon fill="#181818" points="418.5,607.81,422.5,598.81,418.5,602.81,414.5,598.81,418.5,607.81" style="stroke:#181818;stroke-width:1.0;"/><text fill="#000000" font-family="sans-serif" font-size="13" lengthAdjust="spacing" textLength="147" x="270.5" y="574.2369">- dataCentresReserved</text></g><!--link DataCentreInfoCollectionReservation to NodeResourceInfo--><g id="link_DataCentreInfoCollectionReservation_NodeResourceInfo"><path codeLine="76" d="M334.75,471.32 C334.75,390.13 334.75,198.25 334.75,126.59 " fill="none" id="DataCentreInfoCollectionReservation-NodeResourceInfo" style="stroke:#181818;stroke-width:1.0;"/><polygon fill="none" points="334.75,483.32,338.75,477.32,334.75,471.32,330.75,477.32,334.75,483.32" style="stroke:#181818;stroke-width:1.0;"/><polygon fill="#181818" points="334.75,120.59,330.75,129.59,334.75,125.59,338.75,129.59,334.75,120.59" style="stroke:#181818;stroke-width:1.0;"/><text fill="#000000" font-family="sans-serif" font-size="13" lengthAdjust="spacing" textLength="145" x="188.75" y="298.0169">- id2reservedNodeMap</text></g><!--SRC=[xLLTRzem57tFhxZYAMYaclQ845AR2WcfhQhIyJ9DaqakODMnCzjfrttyzrtR9AG9bAfxtKiWr-VSptCTyy1boJGh81FCc7DhDLzL5kUPaWl-4-5ZP1g8u1BjSucWjDsgAF8Kk6IMfIYjnkXN1920P0MEOK6UvCORCbMKbQMtEvOzc2zVn-3- -2DZbMORx1vy09Rdxd-iwH7C8-1c4U1ZM2abXXwuGUk1N5hWCiSVnt4tLU43nLt0c9Ws-jElw5jQLlTKyR7AvBsoJ9m_CYxOIc2gD9hWR7_QCReyL8vNtDYBPt_cKvTLuLyeboLcbDt4eUxGg4fdE9ThDQtfCutuBowO42gxmQVwnCJbihZ3xnKQEuOsPsSSGUbY7NSxV4bpDjzpBWrgNsuiySdzze4ZdtTPXHQ5MMsPp0KsIPtABv3Mr9PbCTEgy06DrSjYdjVZeXg8vGBsKzZnIJrxAmafFb7rYDIh6qiJgL5J45DWmsG2Y_ihc4vtvbw_8gaimk12sIqKh3J0j5kq3PEqXZcidi5kqVLgXHhK6jBRpxHODEu1C79tVNuRzNKBAaccknJ6C4YSPnVP3Du8hhL6X5qXAj59F_i3tixEGbRkuLu2FugeEQZNB4EOxrcf4eBEkP9-rPnqkELCKErn60ytgL1LFgk4YELky9ZlbsiOThcdEnSZyp4yZ7HmM8VlKruhQD1VJUp8hmsa5JvmRSJ3-exO8te79Vcob-aYjEN0XUKg-T_BT_Noe1fXyZj9ZlUtMpXCNa7xdUBv9qcaQrQsL_0b4DmUzZVAy_F6J2lP6p_bWlgHDREdRr0mOUwtkBwQzenkWMqF9zJL3wRRiTpdl1kjK-UhpMsxVmCct5wdkrRtO_1sfzqfruDib-i6-XS0]--></g></svg>