<?xml version="1.0" encoding="windows-1252" standalone="no"?>
<svg xmlns="http://www.w3.org/2000/svg" xmlns:xlink="http://www.w3.org/1999/xlink" contentStyleType="text/css" height="1086px" preserveAspectRatio="none" style="width:1241px;height:1086px;background:#FFFFFF;" version="1.1" viewBox="0 0 1241 1086" width="1241px" zoomAndPan="magnify"><defs/><g><!--class NodeInfo--><g id="elem_NodeInfo"><rect codeLine="4" fill="#F1F1F1" height="145.7813" id="NodeInfo" rx="2.5" ry="2.5" style="stroke:#181818;stroke-width:0.5;" width="180" x="175" y="467.46"/><ellipse cx="229.75" cy="483.46" fill="#ADD1B2" rx="11" ry="11" style="stroke:#181818;stroke-width:1.0;"/><path d="M232.7188,489.1006 Q232.1406,489.3975 231.5,489.5381 Q230.8594,489.6944 230.1563,489.6944 Q227.6563,489.6944 226.3281,488.0538 Q225.0156,486.3975 225.0156,483.2725 Q225.0156,480.1475 226.3281,478.4913 Q227.6563,476.835 230.1563,476.835 Q230.8594,476.835 231.5,476.9913 Q232.1563,477.1475 232.7188,477.4444 L232.7188,480.1631 Q232.0938,479.585 231.5,479.3194 Q230.9063,479.0381 230.2813,479.0381 Q228.9375,479.0381 228.25,480.1163 Q227.5625,481.1788 227.5625,483.2725 Q227.5625,485.3663 228.25,486.4444 Q228.9375,487.5069 230.2813,487.5069 Q230.9063,487.5069 231.5,487.2413 Q232.0938,486.96 232.7188,486.3819 L232.7188,489.1006 Z " fill="#000000"/><text fill="#000000" font-family="sans-serif" font-size="14" lengthAdjust="spacing" textLength="62" x="250.25" y="488.3067">NodeInfo</text><line style="stroke:#181818;stroke-width:0.5;" x1="176" x2="354" y1="499.46" y2="499.46"/><text fill="#000000" font-family="sans-serif" font-size="14" lengthAdjust="spacing" textLength="93" x="181" y="516.4551">-name: String</text><text fill="#000000" font-family="sans-serif" font-size="14" lengthAdjust="spacing" textLength="97" x="181" y="532.752">-storage: bool</text><text fill="#000000" font-family="sans-serif" font-size="14" lengthAdjust="spacing" textLength="143" x="181" y="549.0489">-totalDiskGB: double</text><text fill="#000000" font-family="sans-serif" font-size="14" lengthAdjust="spacing" textLength="168" x="181" y="565.3457">-totalMemoryGB: double</text><text fill="#000000" font-family="sans-serif" font-size="14" lengthAdjust="spacing" textLength="99" x="181" y="581.6426">-numCPUs: int</text><text fill="#000000" font-family="sans-serif" font-size="14" lengthAdjust="spacing" textLength="102" x="181" y="597.9395">-cpuSpeed: int</text><line style="stroke:#181818;stroke-width:0.5;" x1="176" x2="354" y1="605.2413" y2="605.2413"/></g><path d="M6,522.78 L6,547.9128 A0,0 0 0 0 6,547.9128 L140,547.9128 A0,0 0 0 0 140,547.9128 L140,540.78 L179,593.0928 L140,532.78 L140,532.78 L130,522.78 L6,522.78 A0,0 0 0 0 6,522.78 " fill="#FEFFDD" style="stroke:#181818;stroke-width:0.5;"/><path d="M130,522.78 L130,532.78 L140,532.78 L130,522.78 " fill="#FEFFDD" style="stroke:#181818;stroke-width:0.5;"/><text fill="#000000" font-family="sans-serif" font-size="13" lengthAdjust="spacing" textLength="113" x="12" y="539.8469">Measured in MIPS</text><!--class Node--><g id="elem_Node"><rect codeLine="17" fill="#F1F1F1" height="178.375" id="Node" rx="2.5" ry="2.5" style="stroke:#181818;stroke-width:0.5;" width="332" x="902" y="147.6"/><ellipse cx="1045.25" cy="163.6" fill="#ADD1B2" rx="11" ry="11" style="stroke:#181818;stroke-width:1.0;"/><path d="M1048.2188,169.2406 Q1047.6406,169.5375 1047,169.6781 Q1046.3594,169.8344 1045.6563,169.8344 Q1043.1563,169.8344 1041.8281,168.1938 Q1040.5156,166.5375 1040.5156,163.4125 Q1040.5156,160.2875 1041.8281,158.6313 Q1043.1563,156.975 1045.6563,156.975 Q1046.3594,156.975 1047,157.1313 Q1047.6563,157.2875 1048.2188,157.5844 L1048.2188,160.3031 Q1047.5938,159.725 1047,159.4594 Q1046.4063,159.1781 1045.7813,159.1781 Q1044.4375,159.1781 1043.75,160.2563 Q1043.0625,161.3188 1043.0625,163.4125 Q1043.0625,165.5063 1043.75,166.5844 Q1044.4375,167.6469 1045.7813,167.6469 Q1046.4063,167.6469 1047,167.3813 Q1047.5938,167.1 1048.2188,166.5219 L1048.2188,169.2406 Z " fill="#000000"/><text fill="#000000" font-family="sans-serif" font-size="14" lengthAdjust="spacing" textLength="37" x="1065.75" y="168.4467">Node</text><line style="stroke:#181818;stroke-width:0.5;" x1="903" x2="1233" y1="179.6" y2="179.6"/><text fill="#000000" font-family="sans-serif" font-size="14" lengthAdjust="spacing" textLength="66" x="908" y="196.5951">-ip: String</text><text fill="#000000" font-family="sans-serif" font-size="14" lengthAdjust="spacing" textLength="206" x="908" y="212.892">-remainingMemoryGB: double</text><text fill="#000000" font-family="sans-serif" font-size="14" lengthAdjust="spacing" textLength="172" x="908" y="229.1889">-remaininDiskGB: double</text><text fill="#000000" font-family="sans-serif" font-size="14" lengthAdjust="spacing" textLength="99" x="908" y="245.4857">-numCPUs: int</text><text fill="#000000" font-family="sans-serif" font-size="14" lengthAdjust="spacing" textLength="157" x="908" y="261.7826">-numAvailableCpus: int</text><text fill="#000000" font-family="sans-serif" font-size="14" lengthAdjust="spacing" textLength="91" x="908" y="278.0795">-racked: bool</text><line style="stroke:#181818;stroke-width:0.5;" x1="903" x2="1233" y1="285.3813" y2="285.3813"/><text fill="#000000" font-family="sans-serif" font-size="14" lengthAdjust="spacing" textLength="320" x="908" y="302.3764">+setState(newState: tCpuState, cpuIndex: int)</text><text fill="#000000" font-family="sans-serif" font-size="14" lengthAdjust="spacing" textLength="248" x="908" y="318.6732">+getState(cpuIndex: int): tCpuState</text></g><path d="M653,211.65 L653,251.9156 A0,0 0 0 0 653,251.9156 L867,251.9156 A0,0 0 0 0 867,251.9156 L867,235.7828 L906,224.3422 L867,227.7828 L867,221.65 L857,211.65 L653,211.65 A0,0 0 0 0 653,211.65 " fill="#FEFFDD" style="stroke:#181818;stroke-width:0.5;"/><path d="M857,211.65 L857,221.65 L867,221.65 L857,211.65 " fill="#FEFFDD" style="stroke:#181818;stroke-width:0.5;"/><text fill="#000000" font-family="sans-serif" font-size="13" lengthAdjust="spacing" textLength="81" x="659" y="228.7169">Indeed it is a</text><text fill="#000000" font-family="sans-serif" font-size="13" lengthAdjust="spacing" textLength="193" x="659" y="243.8497">misspelling in the source code</text><!--class tCpuState--><g id="elem_tCpuState"><rect codeLine="33" fill="#F1F1F1" height="80.5938" id="tCpuState" rx="2.5" ry="2.5" style="stroke:#181818;stroke-width:0.5;" width="101" x="1110.5" y="500.05"/><ellipse cx="1125.5" cy="516.05" fill="#EB937F" rx="11" ry="11" style="stroke:#181818;stroke-width:1.0;"/><path d="M1129.6094,522.05 L1121.8906,522.05 L1121.8906,509.6594 L1129.6094,509.6594 L1129.6094,511.8156 L1124.3438,511.8156 L1124.3438,514.4875 L1129.1094,514.4875 L1129.1094,516.6438 L1124.3438,516.6438 L1124.3438,519.8938 L1129.6094,519.8938 L1129.6094,522.05 Z " fill="#000000"/><text fill="#000000" font-family="sans-serif" font-size="14" lengthAdjust="spacing" textLength="69" x="1139.5" y="520.8967">tCpuState</text><line style="stroke:#181818;stroke-width:0.5;" x1="1111.5" x2="1210.5" y1="532.05" y2="532.05"/><text fill="#000000" font-family="sans-serif" font-size="14" lengthAdjust="spacing" textLength="62" x="1116.5" y="549.0451">+cpuIdle</text><text fill="#000000" font-family="sans-serif" font-size="14" lengthAdjust="spacing" textLength="72" x="1116.5" y="565.342">+cpuBusy</text><line style="stroke:#181818;stroke-width:0.5;" x1="1111.5" x2="1210.5" y1="572.6438" y2="572.6438"/></g><!--class NodeResourceRequest--><g id="elem_NodeResourceRequest"><rect codeLine="39" fill="#F1F1F1" height="325.0469" id="NodeResourceRequest" rx="2.5" ry="2.5" style="stroke:#181818;stroke-width:0.5;" width="211" x="502.5" y="754.72"/><ellipse cx="524.7" cy="770.72" fill="#ADD1B2" rx="11" ry="11" style="stroke:#181818;stroke-width:1.0;"/><path d="M527.6688,776.3606 Q527.0906,776.6575 526.45,776.7981 Q525.8094,776.9544 525.1063,776.9544 Q522.6063,776.9544 521.2781,775.3138 Q519.9656,773.6575 519.9656,770.5325 Q519.9656,767.4075 521.2781,765.7513 Q522.6063,764.095 525.1063,764.095 Q525.8094,764.095 526.45,764.2513 Q527.1063,764.4075 527.6688,764.7044 L527.6688,767.4231 Q527.0438,766.845 526.45,766.5794 Q525.8563,766.2981 525.2313,766.2981 Q523.8875,766.2981 523.2,767.3763 Q522.5125,768.4388 522.5125,770.5325 Q522.5125,772.6263 523.2,773.7044 Q523.8875,774.7669 525.2313,774.7669 Q525.8563,774.7669 526.45,774.5013 Q527.0438,774.22 527.6688,773.6419 L527.6688,776.3606 Z " fill="#000000"/><text fill="#000000" font-family="sans-serif" font-size="14" lengthAdjust="spacing" textLength="163" x="540.3" y="775.5667">NodeResourceRequest</text><line style="stroke:#181818;stroke-width:0.5;" x1="503.5" x2="712.5" y1="786.72" y2="786.72"/><text fill="#000000" font-family="sans-serif" font-size="14" lengthAdjust="spacing" textLength="125" x="508.5" y="803.7151">-userName: String</text><text fill="#000000" font-family="sans-serif" font-size="14" lengthAdjust="spacing" textLength="124" x="508.5" y="820.012">-nodeType: String</text><text fill="#000000" font-family="sans-serif" font-size="14" lengthAdjust="spacing" textLength="106" x="508.5" y="836.3089">-strVmId: String</text><text fill="#000000" font-family="sans-serif" font-size="14" lengthAdjust="spacing" textLength="107" x="508.5" y="852.6057">-totalCPUs: uint</text><text fill="#000000" font-family="sans-serif" font-size="14" lengthAdjust="spacing" textLength="160" x="508.5" y="868.9026">-nTotalMemory: double</text><text fill="#000000" font-family="sans-serif" font-size="14" lengthAdjust="spacing" textLength="111" x="508.5" y="885.1995">-cpuSpeed: uint</text><text fill="#000000" font-family="sans-serif" font-size="14" lengthAdjust="spacing" textLength="143" x="508.5" y="901.4964">-totalDiskGB: double</text><text fill="#000000" font-family="sans-serif" font-size="14" lengthAdjust="spacing" textLength="168" x="508.5" y="917.7932">-totalMemoryGB: double</text><text fill="#000000" font-family="sans-serif" font-size="14" lengthAdjust="spacing" textLength="97" x="508.5" y="934.0901">-storage: bool</text><text fill="#000000" font-family="sans-serif" font-size="14" lengthAdjust="spacing" textLength="146" x="508.5" y="950.387">-maxStartTime_t1: int</text><text fill="#000000" font-family="sans-serif" font-size="14" lengthAdjust="spacing" textLength="128" x="508.5" y="966.6839">-nRentTime_t2: int</text><text fill="#000000" font-family="sans-serif" font-size="14" lengthAdjust="spacing" textLength="141" x="508.5" y="982.9807">-maxSubTime_t3: int</text><text fill="#000000" font-family="sans-serif" font-size="14" lengthAdjust="spacing" textLength="192" x="508.5" y="999.2776">-maxSubcriptionTime_t4: int</text><text fill="#000000" font-family="sans-serif" font-size="14" lengthAdjust="spacing" textLength="199" x="508.5" y="1015.5745">-appRequestMsg: cMessage</text><text fill="#000000" font-family="sans-serif" font-size="14" lengthAdjust="spacing" textLength="106" x="508.5" y="1031.8714">-nStartTime: int</text><text fill="#000000" font-family="sans-serif" font-size="14" lengthAdjust="spacing" textLength="74" x="508.5" y="1048.1682">-nPrice: int</text><text fill="#000000" font-family="sans-serif" font-size="14" lengthAdjust="spacing" textLength="66" x="508.5" y="1064.4651">-ip: String</text><line style="stroke:#181818;stroke-width:0.5;" x1="503.5" x2="712.5" y1="1071.7669" y2="1071.7669"/></g><!--class RackInfo--><g id="elem_RackInfo"><rect codeLine="60" fill="#F1F1F1" height="113.1875" id="RackInfo" rx="2.5" ry="2.5" style="stroke:#181818;stroke-width:0.5;" width="151" x="374.5" y="180.19"/><ellipse cx="416.5" cy="196.19" fill="#ADD1B2" rx="11" ry="11" style="stroke:#181818;stroke-width:1.0;"/><path d="M419.4688,201.8306 Q418.8906,202.1275 418.25,202.2681 Q417.6094,202.4244 416.9063,202.4244 Q414.4063,202.4244 413.0781,200.7837 Q411.7656,199.1275 411.7656,196.0025 Q411.7656,192.8775 413.0781,191.2212 Q414.4063,189.565 416.9063,189.565 Q417.6094,189.565 418.25,189.7212 Q418.9063,189.8775 419.4688,190.1744 L419.4688,192.8931 Q418.8438,192.315 418.25,192.0494 Q417.6563,191.7681 417.0313,191.7681 Q415.6875,191.7681 415,192.8462 Q414.3125,193.9087 414.3125,196.0025 Q414.3125,198.0962 415,199.1744 Q415.6875,200.2369 417.0313,200.2369 Q417.6563,200.2369 418.25,199.9712 Q418.8438,199.69 419.4688,199.1119 L419.4688,201.8306 Z " fill="#000000"/><text fill="#000000" font-family="sans-serif" font-size="14" lengthAdjust="spacing" textLength="59" x="436.5" y="201.0367">RackInfo</text><line style="stroke:#181818;stroke-width:0.5;" x1="375.5" x2="524.5" y1="212.19" y2="212.19"/><text fill="#000000" font-family="sans-serif" font-size="14" lengthAdjust="spacing" textLength="93" x="380.5" y="229.1851">-name: String</text><text fill="#000000" font-family="sans-serif" font-size="14" lengthAdjust="spacing" textLength="97" x="380.5" y="245.482">-storage: bool</text><text fill="#000000" font-family="sans-serif" font-size="14" lengthAdjust="spacing" textLength="111" x="380.5" y="261.7789">-numBoards: int</text><text fill="#000000" font-family="sans-serif" font-size="14" lengthAdjust="spacing" textLength="139" x="380.5" y="278.0757">-nodesPerBoard: int</text><line style="stroke:#181818;stroke-width:0.5;" x1="375.5" x2="524.5" y1="285.3775" y2="285.3775"/></g><!--class Rack--><g id="elem_Rack"><rect codeLine="68" fill="#F1F1F1" height="80.5938" id="Rack" rx="2.5" ry="2.5" style="stroke:#181818;stroke-width:0.5;" width="203" x="606.5" y="7"/><ellipse cx="686.75" cy="23" fill="#ADD1B2" rx="11" ry="11" style="stroke:#181818;stroke-width:1.0;"/><path d="M689.7188,28.6406 Q689.1406,28.9375 688.5,29.0781 Q687.8594,29.2344 687.1563,29.2344 Q684.6563,29.2344 683.3281,27.5938 Q682.0156,25.9375 682.0156,22.8125 Q682.0156,19.6875 683.3281,18.0313 Q684.6563,16.375 687.1563,16.375 Q687.8594,16.375 688.5,16.5313 Q689.1563,16.6875 689.7188,16.9844 L689.7188,19.7031 Q689.0938,19.125 688.5,18.8594 Q687.9063,18.5781 687.2813,18.5781 Q685.9375,18.5781 685.25,19.6563 Q684.5625,20.7188 684.5625,22.8125 Q684.5625,24.9063 685.25,25.9844 Q685.9375,27.0469 687.2813,27.0469 Q687.9063,27.0469 688.5,26.7813 Q689.0938,26.5 689.7188,25.9219 L689.7188,28.6406 Z " fill="#000000"/><text fill="#000000" font-family="sans-serif" font-size="14" lengthAdjust="spacing" textLength="34" x="707.25" y="27.8467">Rack</text><line style="stroke:#181818;stroke-width:0.5;" x1="607.5" x2="808.5" y1="39" y2="39"/><line style="stroke:#181818;stroke-width:0.5;" x1="607.5" x2="808.5" y1="47" y2="47"/><text fill="#000000" font-family="sans-serif" font-size="14" lengthAdjust="spacing" textLength="148" x="612.5" y="63.9951">+getNumNodes(): int</text><text fill="#000000" font-family="sans-serif" font-size="14" lengthAdjust="spacing" textLength="191" x="612.5" y="80.292">+getNode(index: int): Node</text></g><!--class RackInstances--><g id="elem_RackInstances"><rect codeLine="74" fill="#F1F1F1" height="80.5938" id="RackInstances" rx="2.5" ry="2.5" style="stroke:#181818;stroke-width:0.5;" width="243" x="328.5" y="7"/><ellipse cx="395.25" cy="23" fill="#ADD1B2" rx="11" ry="11" style="stroke:#181818;stroke-width:1.0;"/><path d="M398.2188,28.6406 Q397.6406,28.9375 397,29.0781 Q396.3594,29.2344 395.6563,29.2344 Q393.1563,29.2344 391.8281,27.5938 Q390.5156,25.9375 390.5156,22.8125 Q390.5156,19.6875 391.8281,18.0313 Q393.1563,16.375 395.6563,16.375 Q396.3594,16.375 397,16.5313 Q397.6563,16.6875 398.2188,16.9844 L398.2188,19.7031 Q397.5938,19.125 397,18.8594 Q396.4063,18.5781 395.7813,18.5781 Q394.4375,18.5781 393.75,19.6563 Q393.0625,20.7188 393.0625,22.8125 Q393.0625,24.9063 393.75,25.9844 Q394.4375,27.0469 395.7813,27.0469 Q396.4063,27.0469 397,26.7813 Q397.5938,26.5 398.2188,25.9219 L398.2188,28.6406 Z " fill="#000000"/><text fill="#000000" font-family="sans-serif" font-size="14" lengthAdjust="spacing" textLength="101" x="415.75" y="27.8467">RackInstances</text><line style="stroke:#181818;stroke-width:0.5;" x1="329.5" x2="570.5" y1="39" y2="39"/><line style="stroke:#181818;stroke-width:0.5;" x1="329.5" x2="570.5" y1="47" y2="47"/><text fill="#000000" font-family="sans-serif" font-size="14" lengthAdjust="spacing" textLength="231" x="334.5" y="63.9951">+insertNewRack(newRack: Rack)</text><text fill="#000000" font-family="sans-serif" font-size="14" lengthAdjust="spacing" textLength="145" x="334.5" y="80.292">+getNumRacks(): int</text></g><!--class NodeResourceInfo--><g id="elem_NodeResourceInfo"><rect codeLine="80" fill="#F1F1F1" height="308.75" id="NodeResourceInfo" rx="2.5" ry="2.5" style="stroke:#181818;stroke-width:0.5;" width="435" x="390.5" y="385.97"/><ellipse cx="539.25" cy="401.97" fill="#ADD1B2" rx="11" ry="11" style="stroke:#181818;stroke-width:1.0;"/><path d="M542.2188,407.6106 Q541.6406,407.9075 541,408.0481 Q540.3594,408.2044 539.6563,408.2044 Q537.1563,408.2044 535.8281,406.5638 Q534.5156,404.9075 534.5156,401.7825 Q534.5156,398.6575 535.8281,397.0013 Q537.1563,395.345 539.6563,395.345 Q540.3594,395.345 541,395.5013 Q541.6563,395.6575 542.2188,395.9544 L542.2188,398.6731 Q541.5938,398.095 541,397.8294 Q540.4063,397.5481 539.7813,397.5481 Q538.4375,397.5481 537.75,398.6263 Q537.0625,399.6888 537.0625,401.7825 Q537.0625,403.8763 537.75,404.9544 Q538.4375,406.0169 539.7813,406.0169 Q540.4063,406.0169 541,405.7513 Q541.5938,405.47 542.2188,404.8919 L542.2188,407.6106 Z " fill="#000000"/><text fill="#000000" font-family="sans-serif" font-size="14" lengthAdjust="spacing" textLength="129" x="559.75" y="406.8167">NodeResourceInfo</text><line style="stroke:#181818;stroke-width:0.5;" x1="391.5" x2="824.5" y1="417.97" y2="417.97"/><text fill="#000000" font-family="sans-serif" font-size="14" lengthAdjust="spacing" textLength="66" x="396.5" y="434.9651">-ip: String</text><text fill="#000000" font-family="sans-serif" font-size="14" lengthAdjust="spacing" textLength="124" x="396.5" y="451.262">-nodeType: String</text><text fill="#000000" font-family="sans-serif" font-size="14" lengthAdjust="spacing" textLength="119" x="396.5" y="467.5589">-nDataCentre: int</text><text fill="#000000" font-family="sans-serif" font-size="14" lengthAdjust="spacing" textLength="144" x="396.5" y="483.8557">-nAvailableCpus: uint</text><text fill="#000000" font-family="sans-serif" font-size="14" lengthAdjust="spacing" textLength="163" x="396.5" y="500.1526">-nAvailableMemory: uint</text><text fill="#000000" font-family="sans-serif" font-size="14" lengthAdjust="spacing" textLength="181" x="396.5" y="516.4495">-dAvailableDiskGB: double</text><text fill="#000000" font-family="sans-serif" font-size="14" lengthAdjust="spacing" textLength="114" x="396.5" y="532.7464">-nTotalUsers: int</text><line style="stroke:#181818;stroke-width:0.5;" x1="391.5" x2="824.5" y1="540.0481" y2="540.0481"/><text fill="#000000" font-family="sans-serif" font-size="14" lengthAdjust="spacing" textLength="334" x="396.5" y="557.0432">+hasFit(pUserRq: NodeResourceRequest): bool</text><text fill="#000000" font-family="sans-serif" font-size="14" lengthAdjust="spacing" textLength="423" x="396.5" y="573.3401">+insertUserRequest(pUserRq: NodeResourceRequest): bool</text><text fill="#000000" font-family="sans-serif" font-size="14" lengthAdjust="spacing" textLength="337" x="396.5" y="589.637">+freeResources(pUser: NodeResourceRequest)</text><text fill="#000000" font-family="sans-serif" font-size="14" lengthAdjust="spacing" textLength="201" x="396.5" y="605.9339">+freeVmById(strVmId: String)</text><text fill="#000000" font-family="sans-serif" font-size="14" lengthAdjust="spacing" textLength="240" x="396.5" y="622.2307">+searchUser(strUserName: String)</text><text fill="#000000" font-family="sans-serif" font-size="14" lengthAdjust="spacing" textLength="130" x="396.5" y="638.5276">+printNodeUsers()</text><text fill="#000000" font-family="sans-serif" font-size="14" lengthAdjust="spacing" textLength="187" x="396.5" y="654.8245">+printAvailableResources()</text><text fill="#000000" font-family="sans-serif" font-size="14" lengthAdjust="spacing" textLength="405" x="396.5" y="671.1214">+simpleInserUserRequest(pUser: NodeResourceRequest)</text><text fill="#000000" font-family="sans-serif" font-size="14" lengthAdjust="spacing" textLength="280" x="396.5" y="687.4182">+getTotalCpusById(strVmId: String): uint</text></g><path d="M861,515.22 L861,531.3528 L801.5,666.2747 L861,539.3528 L861,555.4856 A0,0 0 0 0 861,555.4856 L1075,555.4856 A0,0 0 0 0 1075,555.4856 L1075,525.22 L1065,515.22 L861,515.22 A0,0 0 0 0 861,515.22 " fill="#FEFFDD" style="stroke:#181818;stroke-width:0.5;"/><path d="M1065,515.22 L1065,525.22 L1075,525.22 L1065,515.22 " fill="#FEFFDD" style="stroke:#181818;stroke-width:0.5;"/><text fill="#000000" font-family="sans-serif" font-size="13" lengthAdjust="spacing" textLength="123" x="867" y="532.2869">Indeed it is another</text><text fill="#000000" font-family="sans-serif" font-size="13" lengthAdjust="spacing" textLength="193" x="867" y="547.4197">misspelling in the source code</text><!--link Node to tCpuState--><g id="link_Node_tCpuState"><path codeLine="105" d="M1161,338.22 C1161,395.76 1161,449.77 1161,493.89 " fill="none" id="Node-tCpuState" style="stroke:#181818;stroke-width:1.0;"/><polygon fill="#181818" points="1161,326.22,1157,332.22,1161,338.22,1165,332.22,1161,326.22" style="stroke:#181818;stroke-width:1.0;"/><polygon fill="#181818" points="1161,499.89,1165,490.89,1161,494.89,1157,490.89,1161,499.89" style="stroke:#181818;stroke-width:1.0;"/><text fill="#000000" font-family="sans-serif" font-size="13" lengthAdjust="spacing" textLength="67" x="1093" y="409.1269">- cpuState</text></g><!--link RackInfo to NodeInfo--><g id="link_RackInfo_NodeInfo"><path codeLine="106" d="M374.23,237.77 C356.04,237.77 341.75,237.77 341.75,237.77 C341.75,237.77 341.75,371.55 341.75,461.1 " fill="none" id="RackInfo-to-NodeInfo" style="stroke:#181818;stroke-width:1.0;"/><polygon fill="#181818" points="341.75,467.1,345.75,458.1,341.75,462.1,337.75,458.1,341.75,467.1" style="stroke:#181818;stroke-width:1.0;"/><text fill="#000000" font-family="sans-serif" font-size="13" lengthAdjust="spacing" textLength="64" x="276.75" y="332.2669">- nodeInfo</text></g><!--link Rack to RackInfo--><g id="link_Rack_RackInfo"><path codeLine="107" d="M629.75,87.75 C629.75,132.02 629.75,196.77 629.75,196.77 C629.75,196.77 581.03,196.77 531.97,196.77 " fill="none" id="Rack-to-RackInfo" style="stroke:#181818;stroke-width:1.0;"/><polygon fill="#181818" points="525.97,196.77,534.97,200.77,530.97,196.77,534.97,192.77,525.97,196.77" style="stroke:#181818;stroke-width:1.0;"/><text fill="#000000" font-family="sans-serif" font-size="13" lengthAdjust="spacing" textLength="59" x="569.75" y="190.2169">- rackInfo</text></g><!--link Rack to Node--><g id="link_Rack_Node"><path codeLine="108" d="M731.25,100.06 C731.25,133.98 731.25,164.77 731.25,164.77 C731.25,164.77 810.76,164.77 895.6,164.77 " fill="none" id="Rack-Node" style="stroke:#181818;stroke-width:1.0;"/><polygon fill="#181818" points="731.25,88.06,727.25,94.06,731.25,100.06,735.25,94.06,731.25,88.06" style="stroke:#181818;stroke-width:1.0;"/><polygon fill="#181818" points="901.6,164.77,892.6,160.77,896.6,164.77,892.6,168.77,901.6,164.77" style="stroke:#181818;stroke-width:1.0;"/><text fill="#000000" font-family="sans-serif" font-size="13" lengthAdjust="spacing" textLength="48" x="729.07" y="160.8369">- nodes</text></g><!--link RackInstances to RackInfo--><g id="link_RackInstances_RackInfo"><path codeLine="109" d="M450,87.95 C450,114.81 450,144.39 450,174.03 " fill="none" id="RackInstances-to-RackInfo" style="stroke:#181818;stroke-width:1.0;"/><polygon fill="#181818" points="450,180.03,454,171.03,450,175.03,446,171.03,450,180.03" style="stroke:#181818;stroke-width:1.0;"/></g><!--link RackInstances to Rack--><g id="link_RackInstances_Rack"><path codeLine="110" d="M583.82,47.77 C595.3,47.77 588.86,47.77 600.13,47.77 " fill="none" id="RackInstances-Rack" style="stroke:#181818;stroke-width:1.0;"/><polygon fill="#181818" points="571.82,47.77,577.82,51.77,583.82,47.77,577.82,43.77,571.82,47.77" style="stroke:#181818;stroke-width:1.0;"/><polygon fill="#181818" points="606.13,47.77,597.13,43.77,601.13,47.77,597.13,51.77,606.13,47.77" style="stroke:#181818;stroke-width:1.0;"/></g><!--link NodeResourceInfo to NodeResourceRequest--><g id="link_NodeResourceInfo_NodeResourceRequest"><path codeLine="111" d="M608,707.01 C608,726.61 608,728.72 608,748.45 " fill="none" id="NodeResourceInfo-NodeResourceRequest" style="stroke:#181818;stroke-width:1.0;"/><polygon fill="#181818" points="608,695.01,604,701.01,608,707.01,612,701.01,608,695.01" style="stroke:#181818;stroke-width:1.0;"/><polygon fill="#181818" points="608,754.45,612,745.45,608,749.45,604,745.45,608,754.45" style="stroke:#181818;stroke-width:1.0;"/><text fill="#000000" font-family="sans-serif" font-size="13" lengthAdjust="spacing" textLength="80" x="527" y="720.7969">- userRqMap</text></g><!--reverse link NodeInfo to NodeResourceInfo--><g id="link_NodeInfo_NodeResourceInfo"><path codeLine="112" d="M373.12,540.77 C384.33,540.77 378.15,540.77 390.31,540.77 " fill="none" id="NodeInfo-backto-NodeResourceInfo" style="stroke:#181818;stroke-width:1.0;"/><polygon fill="none" points="355.12,540.77,373.12,546.77,373.12,534.77,355.12,540.77" style="stroke:#181818;stroke-width:1.0;"/></g><!--SRC=[bLN9Rjim4BtpAmYVxBG6kfs8ea2Se8KFDWmxoRMWfR5DH28PBatSvTzBKXH5oKBHd2pEFc_UZFKZuv8gMkEYebfV6wFOtXfO5eBls4_0xv1E9XNZOCuIi53c910ABdWjIbZoWq2_4CPpp6aD1EzS77uC0cs4eaSdsmjH1OaHXbQtJ3z-Mn1S2hkle9Ele1RgFD1mMzzixZN1Z9iWAAJTIO2oaVn1N1Z05HmC5eTK4I6j6Le1rLP1wSpnQhdP8U0bzavv5x439dlrAwWfu-urMbch7MddecWdkFv1MKMTnOsqcKRHuj4t4o5wWpMOdQ46fXoUmmV1nhc4pxU- -oKluIK4c0M7O-lGrsLkOoWHqgyVULUFai5COufHpRIMKBd97prqvWHO2wiAm8K7h4CHN7DPhb-XA5zB6T08tmkhpwwA3F4jDD6sy6H1cpW0gq6jXpJYplpEaM_0BVLGBykUBB2e0TucvEywQlLcrF4esRwUdPSCh-cBmq6PErR3T_C-ey0MU9H-wAJUtEuRySUXk51C6YPue_xKgQcK4RULFX9Sh41hLqQJ9wNFScyKAx9tnlCqbAqZOhVCmrs-QDGDVI6eAZig-p7f3QWWRhSp2nwPuUYwjhMdW9xEMkT6x6HJbZCuhEQWGcqeBq37Q8mxnfWrF7kbNnd_IuBfB4ldtodTA0-pEpQu0gFquxVKq1itKPN3FDXnUwbeYPXKPLADtP50tdlNekwGEb7zbPcfzEBj4ndRfbbsJng4Wd6Z_6_FWuAaretNk4-oVgWNvsKv7UpcBDurgegJ3-BrzuD5Rsoa-mmq22rFCs52gIieXcMrhDpqdCD5Z_-erj4YOEi7DLfp797ZIZYTYXrFwNRcd25al8B1FNL1Jg1USLLz7dmrdt_fJYl1a-Pi-SS4jGkBlL7wu_CsF3uQcw1lZODUnKVKNxK1ahEUODJRjbwCWUeggj0GcYxmO0GXZmqaN54vGMtn-FFl-GN0Vm40]--></g></svg>