<?xml version="1.0" encoding="us-ascii" standalone="no"?><svg xmlns="http://www.w3.org/2000/svg" xmlns:xlink="http://www.w3.org/1999/xlink" contentStyleType="text/css" height="923px" preserveAspectRatio="none" style="width:1491px;height:923px;background:#FFFFFF;" version="1.1" viewBox="0 0 1491 923" width="1491px" zoomAndPan="magnify"><defs/><g><!--class User--><g id="elem_User"><rect codeLine="4" fill="#F1F1F1" height="129.4844" id="User" rx="2.5" ry="2.5" style="stroke:#181818;stroke-width:0.5;" width="409" x="831.5" y="15.15"/><ellipse cx="1015.75" cy="31.15" fill="#ADD1B2" rx="11" ry="11" style="stroke:#181818;stroke-width:1.0;"/><path d="M1018.7188,36.7906 Q1018.1406,37.0875 1017.5,37.2281 Q1016.8594,37.3844 1016.1563,37.3844 Q1013.6563,37.3844 1012.3281,35.7437 Q1011.0156,34.0875 1011.0156,30.9625 Q1011.0156,27.8375 1012.3281,26.1812 Q1013.6563,24.525 1016.1563,24.525 Q1016.8594,24.525 1017.5,24.6812 Q1018.1563,24.8375 1018.7188,25.1344 L1018.7188,27.8531 Q1018.0938,27.275 1017.5,27.0094 Q1016.9063,26.7281 1016.2813,26.7281 Q1014.9375,26.7281 1014.25,27.8062 Q1013.5625,28.8687 1013.5625,30.9625 Q1013.5625,33.0562 1014.25,34.1344 Q1014.9375,35.1969 1016.2813,35.1969 Q1016.9063,35.1969 1017.5,34.9312 Q1018.0938,34.65 1018.7188,34.0719 L1018.7188,36.7906 Z " fill="#000000"/><text fill="#000000" font-family="sans-serif" font-size="14" lengthAdjust="spacing" textLength="32" x="1036.25" y="35.9967">User</text><line style="stroke:#181818;stroke-width:0.5;" x1="832.5" x2="1239.5" y1="47.15" y2="47.15"/><text fill="#000000" font-family="sans-serif" font-size="14" lengthAdjust="spacing" textLength="91" x="837.5" y="64.1451">#type: String</text><text fill="#000000" font-family="sans-serif" font-size="14" lengthAdjust="spacing" textLength="136" x="837.5" y="80.442">#numInstances: int</text><line style="stroke:#181818;stroke-width:0.5;" x1="832.5" x2="1239.5" y1="87.7437" y2="87.7437"/><text fill="#000000" font-family="sans-serif" font-size="14" lengthAdjust="spacing" textLength="397" x="837.5" y="104.7389">+insertApplication(appPtr: Application, numInstances: int)</text><text fill="#000000" font-family="sans-serif" font-size="14" lengthAdjust="spacing" textLength="328" x="837.5" y="121.0357">+getApplication(index: int): UserAppReference;</text><text fill="#000000" font-family="sans-serif" font-size="14" lengthAdjust="spacing" textLength="186" x="837.5" y="137.3326">+getNumApplications(): int</text></g><!--class CloudUser--><g id="elem_CloudUser"><rect codeLine="13" fill="#F1F1F1" height="129.4844" id="CloudUser" rx="2.5" ry="2.5" style="stroke:#181818;stroke-width:0.5;" width="563" x="921.5" y="359.46"/><ellipse cx="1162.75" cy="375.46" fill="#ADD1B2" rx="11" ry="11" style="stroke:#181818;stroke-width:1.0;"/><path d="M1165.7188,381.1006 Q1165.1406,381.3975 1164.5,381.5381 Q1163.8594,381.6944 1163.1563,381.6944 Q1160.6563,381.6944 1159.3281,380.0537 Q1158.0156,378.3975 1158.0156,375.2725 Q1158.0156,372.1475 1159.3281,370.4912 Q1160.6563,368.835 1163.1563,368.835 Q1163.8594,368.835 1164.5,368.9912 Q1165.1563,369.1475 1165.7188,369.4444 L1165.7188,372.1631 Q1165.0938,371.585 1164.5,371.3194 Q1163.9063,371.0381 1163.2813,371.0381 Q1161.9375,371.0381 1161.25,372.1162 Q1160.5625,373.1787 1160.5625,375.2725 Q1160.5625,377.3662 1161.25,378.4444 Q1161.9375,379.5069 1163.2813,379.5069 Q1163.9063,379.5069 1164.5,379.2412 Q1165.0938,378.96 1165.7188,378.3819 L1165.7188,381.1006 Z " fill="#000000"/><text fill="#000000" font-family="sans-serif" font-size="14" lengthAdjust="spacing" textLength="72" x="1183.25" y="380.3067">CloudUser</text><line style="stroke:#181818;stroke-width:0.5;" x1="922.5" x2="1483.5" y1="391.46" y2="391.46"/><text fill="#000000" font-family="sans-serif" font-size="14" lengthAdjust="spacing" textLength="91" x="927.5" y="408.4551">#type: String</text><text fill="#000000" font-family="sans-serif" font-size="14" lengthAdjust="spacing" textLength="136" x="927.5" y="424.752">#numInstances: int</text><line style="stroke:#181818;stroke-width:0.5;" x1="922.5" x2="1483.5" y1="432.0537" y2="432.0537"/><text fill="#000000" font-family="sans-serif" font-size="14" lengthAdjust="spacing" textLength="551" x="927.5" y="449.0489">+insertVirtualMachine(vmPtr: VirtualMachine, numInstances: int, nRentTime: int)</text><text fill="#000000" font-family="sans-serif" font-size="14" lengthAdjust="spacing" textLength="338" x="927.5" y="465.3457">+getVirtualMachine(int index): UserVmReference</text><text fill="#000000" font-family="sans-serif" font-size="14" lengthAdjust="spacing" textLength="211" x="927.5" y="481.6426">+getNumVitrualMachines(): int</text></g><!--class UserAppReference--><g id="elem_UserAppReference"><rect codeLine="22" fill="#F1F1F1" height="80.5938" id="UserAppReference" rx="2.5" ry="2.5" style="stroke:#181818;stroke-width:0.5;" width="163" x="850.5" y="703.76"/><ellipse cx="865.5" cy="719.76" fill="#ADD1B2" rx="11" ry="11" style="stroke:#181818;stroke-width:1.0;"/><path d="M868.4688,725.4006 Q867.8906,725.6975 867.25,725.8381 Q866.6094,725.9944 865.9063,725.9944 Q863.4063,725.9944 862.0781,724.3538 Q860.7656,722.6975 860.7656,719.5725 Q860.7656,716.4475 862.0781,714.7913 Q863.4063,713.135 865.9063,713.135 Q866.6094,713.135 867.25,713.2913 Q867.9063,713.4475 868.4688,713.7444 L868.4688,716.4631 Q867.8438,715.885 867.25,715.6194 Q866.6563,715.3381 866.0313,715.3381 Q864.6875,715.3381 864,716.4163 Q863.3125,717.4788 863.3125,719.5725 Q863.3125,721.6663 864,722.7444 Q864.6875,723.8069 866.0313,723.8069 Q866.6563,723.8069 867.25,723.5413 Q867.8438,723.26 868.4688,722.6819 L868.4688,725.4006 Z " fill="#000000"/><text fill="#000000" font-family="sans-serif" font-size="14" lengthAdjust="spacing" textLength="131" x="879.5" y="724.6067">UserAppReference</text><line style="stroke:#181818;stroke-width:0.5;" x1="851.5" x2="1012.5" y1="735.76" y2="735.76"/><text fill="#000000" font-family="sans-serif" font-size="14" lengthAdjust="spacing" textLength="150" x="856.5" y="752.7551">-appBase: Application</text><text fill="#000000" font-family="sans-serif" font-size="14" lengthAdjust="spacing" textLength="129" x="856.5" y="769.052">-numInstances: int</text><line style="stroke:#181818;stroke-width:0.5;" x1="851.5" x2="1012.5" y1="776.3538" y2="776.3538"/></g><!--class UserVmReference--><g id="elem_UserVmReference"><rect codeLine="28" fill="#F1F1F1" height="96.8906" id="UserVmReference" rx="2.5" ry="2.5" style="stroke:#181818;stroke-width:0.5;" width="181" x="1112.5" y="695.61"/><ellipse cx="1137.85" cy="711.61" fill="#ADD1B2" rx="11" ry="11" style="stroke:#181818;stroke-width:1.0;"/><path d="M1140.8188,717.2506 Q1140.2406,717.5475 1139.6,717.6881 Q1138.9594,717.8444 1138.2563,717.8444 Q1135.7563,717.8444 1134.4281,716.2037 Q1133.1156,714.5475 1133.1156,711.4225 Q1133.1156,708.2975 1134.4281,706.6412 Q1135.7563,704.985 1138.2563,704.985 Q1138.9594,704.985 1139.6,705.1412 Q1140.2563,705.2975 1140.8188,705.5944 L1140.8188,708.3131 Q1140.1938,707.735 1139.6,707.4694 Q1139.0063,707.1881 1138.3813,707.1881 Q1137.0375,707.1881 1136.35,708.2662 Q1135.6625,709.3287 1135.6625,711.4225 Q1135.6625,713.5162 1136.35,714.5944 Q1137.0375,715.6569 1138.3813,715.6569 Q1139.0063,715.6569 1139.6,715.3912 Q1140.1938,715.11 1140.8188,714.5319 L1140.8188,717.2506 Z " fill="#000000"/><text fill="#000000" font-family="sans-serif" font-size="14" lengthAdjust="spacing" textLength="126" x="1154.15" y="716.4567">UserVmReference</text><line style="stroke:#181818;stroke-width:0.5;" x1="1113.5" x2="1292.5" y1="727.61" y2="727.61"/><text fill="#000000" font-family="sans-serif" font-size="14" lengthAdjust="spacing" textLength="169" x="1118.5" y="744.6051">-vmBase: VirtualMachine</text><text fill="#000000" font-family="sans-serif" font-size="14" lengthAdjust="spacing" textLength="129" x="1118.5" y="760.902">-numInstances: int</text><text fill="#000000" font-family="sans-serif" font-size="14" lengthAdjust="spacing" textLength="107" x="1118.5" y="777.1989">-nRentTime: int</text><line style="stroke:#181818;stroke-width:0.5;" x1="1113.5" x2="1292.5" y1="784.5006" y2="784.5006"/></g><!--class UserInstance--><g id="elem_UserInstance"><rect codeLine="35" fill="#F1F1F1" height="145.7813" id="UserInstance" rx="2.5" ry="2.5" style="stroke:#181818;stroke-width:0.5;" width="510" x="7" y="7"/><ellipse cx="212.25" cy="23" fill="#ADD1B2" rx="11" ry="11" style="stroke:#181818;stroke-width:1.0;"/><path d="M215.2188,28.6406 Q214.6406,28.9375 214,29.0781 Q213.3594,29.2344 212.6563,29.2344 Q210.1563,29.2344 208.8281,27.5938 Q207.5156,25.9375 207.5156,22.8125 Q207.5156,19.6875 208.8281,18.0313 Q210.1563,16.375 212.6563,16.375 Q213.3594,16.375 214,16.5313 Q214.6563,16.6875 215.2188,16.9844 L215.2188,19.7031 Q214.5938,19.125 214,18.8594 Q213.4063,18.5781 212.7813,18.5781 Q211.4375,18.5781 210.75,19.6563 Q210.0625,20.7188 210.0625,22.8125 Q210.0625,24.9063 210.75,25.9844 Q211.4375,27.0469 212.7813,27.0469 Q213.4063,27.0469 214,26.7813 Q214.5938,26.5 215.2188,25.9219 L215.2188,28.6406 Z " fill="#000000"/><text fill="#000000" font-family="sans-serif" font-size="14" lengthAdjust="spacing" textLength="91" x="232.75" y="27.8467">UserInstance</text><line style="stroke:#181818;stroke-width:0.5;" x1="8" x2="516" y1="39" y2="39"/><text fill="#000000" font-family="sans-serif" font-size="14" lengthAdjust="spacing" textLength="99" x="13" y="55.9951">-userID: String</text><text fill="#000000" font-family="sans-serif" font-size="14" lengthAdjust="spacing" textLength="84" x="13" y="72.292">-type: String</text><text fill="#000000" font-family="sans-serif" font-size="14" lengthAdjust="spacing" textLength="126" x="13" y="88.5889">-userNumber: uint</text><text fill="#000000" font-family="sans-serif" font-size="14" lengthAdjust="spacing" textLength="154" x="13" y="104.8857">-instanceNumber: uint</text><text fill="#000000" font-family="sans-serif" font-size="14" lengthAdjust="spacing" textLength="260" x="13" y="121.1826">-applications[]: AppInstanceCollection</text><line style="stroke:#181818;stroke-width:0.5;" x1="8" x2="516" y1="128.4844" y2="128.4844"/><text fill="#000000" font-family="sans-serif" font-size="14" lengthAdjust="spacing" textLength="498" x="13" y="145.4795">#insertNewApplicationInstances (appPtr: Application, numInstances: int)</text></g><!--class CloudUserInstance--><g id="elem_CloudUserInstance"><rect codeLine="45" fill="#F1F1F1" height="422.8281" id="CloudUserInstance" rx="2.5" ry="2.5" style="stroke:#181818;stroke-width:0.5;" width="298" x="113" y="212.78"/><ellipse cx="192.25" cy="228.78" fill="#ADD1B2" rx="11" ry="11" style="stroke:#181818;stroke-width:1.0;"/><path d="M195.2188,234.4206 Q194.6406,234.7175 194,234.8581 Q193.3594,235.0144 192.6563,235.0144 Q190.1563,235.0144 188.8281,233.3737 Q187.5156,231.7175 187.5156,228.5925 Q187.5156,225.4675 188.8281,223.8112 Q190.1563,222.155 192.6563,222.155 Q193.3594,222.155 194,222.3112 Q194.6563,222.4675 195.2188,222.7644 L195.2188,225.4831 Q194.5938,224.905 194,224.6394 Q193.4063,224.3581 192.7813,224.3581 Q191.4375,224.3581 190.75,225.4362 Q190.0625,226.4987 190.0625,228.5925 Q190.0625,230.6862 190.75,231.7644 Q191.4375,232.8269 192.7813,232.8269 Q193.4063,232.8269 194,232.5612 Q194.5938,232.28 195.2188,231.7019 L195.2188,234.4206 Z " fill="#000000"/><text fill="#000000" font-family="sans-serif" font-size="14" lengthAdjust="spacing" textLength="131" x="212.75" y="233.6267">CloudUserInstance</text><line style="stroke:#181818;stroke-width:0.5;" x1="114" x2="410" y1="244.78" y2="244.78"/><text fill="#000000" font-family="sans-serif" font-size="14" lengthAdjust="spacing" textLength="286" x="119" y="261.7751">+virtualMachines[]: VmInstanceCollection</text><text fill="#000000" font-family="sans-serif" font-size="14" lengthAdjust="spacing" textLength="146" x="119" y="278.072">-maxStartTime_t1: int</text><text fill="#000000" font-family="sans-serif" font-size="14" lengthAdjust="spacing" textLength="128" x="119" y="294.3689">-nRentTime_t2: int</text><text fill="#000000" font-family="sans-serif" font-size="14" lengthAdjust="spacing" textLength="141" x="119" y="310.6657">-maxSubTime_t3: int</text><text fill="#000000" font-family="sans-serif" font-size="14" lengthAdjust="spacing" textLength="200" x="119" y="326.9626">-maxSubscriptionTime_t4: int</text><text fill="#000000" font-family="sans-serif" font-size="14" lengthAdjust="spacing" textLength="52" x="119" y="343.2595">-nId: int</text><text fill="#000000" font-family="sans-serif" font-size="14" lengthAdjust="spacing" textLength="149" x="119" y="359.5564">-numFinishedVMs: int</text><text fill="#000000" font-family="sans-serif" font-size="14" lengthAdjust="spacing" textLength="197" x="119" y="375.8532">-numActiveSubscriptions: int</text><text fill="#000000" font-family="sans-serif" font-size="14" lengthAdjust="spacing" textLength="171" x="119" y="392.1501">-dArrival2Cloud: SimTime</text><text fill="#000000" font-family="sans-serif" font-size="14" lengthAdjust="spacing" textLength="136" x="119" y="408.447">-dInitTime: SimTime</text><text fill="#000000" font-family="sans-serif" font-size="14" lengthAdjust="spacing" textLength="143" x="119" y="424.7439">-dEndTime: SimTime</text><text fill="#000000" font-family="sans-serif" font-size="14" lengthAdjust="spacing" textLength="165" x="119" y="441.0407">-dInitWaitTime: SimTime</text><text fill="#000000" font-family="sans-serif" font-size="14" lengthAdjust="spacing" textLength="145" x="119" y="457.3376">-dWaitTime: SimTime</text><text fill="#000000" font-family="sans-serif" font-size="14" lengthAdjust="spacing" textLength="122" x="119" y="473.6345">-bSubscribe: bool</text><text fill="#000000" font-family="sans-serif" font-size="14" lengthAdjust="spacing" textLength="111" x="119" y="489.9314">-bFinished: bool</text><text fill="#000000" font-family="sans-serif" font-size="14" lengthAdjust="spacing" textLength="132" x="119" y="506.2282">#numTotalVMs: int</text><text fill="#000000" font-family="sans-serif" font-size="14" lengthAdjust="spacing" textLength="217" x="119" y="522.5251">+appInstances[]: appInstances</text><text fill="#000000" font-family="sans-serif" font-size="14" lengthAdjust="spacing" textLength="207" x="119" y="538.822">+requestVmMsg: SM_UserVM</text><text fill="#000000" font-family="sans-serif" font-size="14" lengthAdjust="spacing" textLength="218" x="119" y="555.1189">+requestAppMsg: SM_UserAPP</text><text fill="#000000" font-family="sans-serif" font-size="14" lengthAdjust="spacing" textLength="212" x="119" y="571.4157">+suscribeVmMsg: SM_UserVM</text><text fill="#000000" font-family="sans-serif" font-size="14" lengthAdjust="spacing" textLength="138" x="119" y="587.7126">+bTimeout_t2: bool</text><text fill="#000000" font-family="sans-serif" font-size="14" lengthAdjust="spacing" textLength="138" x="119" y="604.0095">+bTimeout_t4: bool</text><line style="stroke:#181818;stroke-width:0.5;" x1="114" x2="410" y1="611.3113" y2="611.3113"/><text fill="#000000" font-family="sans-serif" font-size="14" lengthAdjust="spacing" textLength="22" x="119" y="628.3064">...()</text></g><g id="elem_GMN8"><path d="M446,411.63 L446,420.8 L411.29,424.8 L446,428.8 L446,436.7628 A0,0 0 0 0 446,436.7628 L816,436.7628 A0,0 0 0 0 816,436.7628 L816,421.63 L806,411.63 L446,411.63 A0,0 0 0 0 446,411.63 " fill="#FEFFDD" style="stroke:#181818;stroke-width:0.5;"/><path d="M806,411.63 L806,421.63 L816,421.63 L806,411.63 " fill="#FEFFDD" style="stroke:#181818;stroke-width:0.5;"/><text fill="#000000" font-family="sans-serif" font-size="13" lengthAdjust="spacing" textLength="349" x="452" y="428.6969">"This class contains way too many methods/attributes"</text></g><!--class CloudUserInstancePriority--><g id="elem_CloudUserInstancePriority"><rect codeLine="73" fill="#F1F1F1" height="96.8906" id="CloudUserInstancePriority" rx="2.5" ry="2.5" style="stroke:#181818;stroke-width:0.5;" width="209" x="157.5" y="695.61"/><ellipse cx="172.5" cy="711.61" fill="#ADD1B2" rx="11" ry="11" style="stroke:#181818;stroke-width:1.0;"/><path d="M175.4688,717.2506 Q174.8906,717.5475 174.25,717.6881 Q173.6094,717.8444 172.9063,717.8444 Q170.4063,717.8444 169.0781,716.2037 Q167.7656,714.5475 167.7656,711.4225 Q167.7656,708.2975 169.0781,706.6412 Q170.4063,704.985 172.9063,704.985 Q173.6094,704.985 174.25,705.1412 Q174.9063,705.2975 175.4688,705.5944 L175.4688,708.3131 Q174.8438,707.735 174.25,707.4694 Q173.6563,707.1881 173.0313,707.1881 Q171.6875,707.1881 171,708.2662 Q170.3125,709.3287 170.3125,711.4225 Q170.3125,713.5162 171,714.5944 Q171.6875,715.6569 173.0313,715.6569 Q173.6563,715.6569 174.25,715.3912 Q174.8438,715.11 175.4688,714.5319 L175.4688,717.2506 Z " fill="#000000"/><text fill="#000000" font-family="sans-serif" font-size="14" lengthAdjust="spacing" textLength="177" x="186.5" y="716.4567">CloudUserInstancePriority</text><line style="stroke:#181818;stroke-width:0.5;" x1="158.5" x2="365.5" y1="727.61" y2="727.61"/><text fill="#000000" font-family="sans-serif" font-size="14" lengthAdjust="spacing" textLength="94" x="163.5" y="744.6051">-bCredit: bool</text><line style="stroke:#181818;stroke-width:0.5;" x1="158.5" x2="365.5" y1="751.9069" y2="751.9069"/><text fill="#000000" font-family="sans-serif" font-size="14" lengthAdjust="spacing" textLength="123" x="163.5" y="768.902">+isBCredit(): bool</text><text fill="#000000" font-family="sans-serif" font-size="14" lengthAdjust="spacing" textLength="184" x="163.5" y="785.1989">+setBCredit(bCredit: bool)</text></g><!--class CloudUserInstanceTrace--><g id="elem_CloudUserInstanceTrace"><rect codeLine="80" fill="#F1F1F1" height="64.2969" id="CloudUserInstanceTrace" rx="2.5" ry="2.5" style="stroke:#181818;stroke-width:0.5;" width="202" x="161" y="852.5"/><ellipse cx="176" cy="868.5" fill="#ADD1B2" rx="11" ry="11" style="stroke:#181818;stroke-width:1.0;"/><path d="M178.9688,874.1406 Q178.3906,874.4375 177.75,874.5781 Q177.1094,874.7344 176.4063,874.7344 Q173.9063,874.7344 172.5781,873.0938 Q171.2656,871.4375 171.2656,868.3125 Q171.2656,865.1875 172.5781,863.5313 Q173.9063,861.875 176.4063,861.875 Q177.1094,861.875 177.75,862.0313 Q178.4063,862.1875 178.9688,862.4844 L178.9688,865.2031 Q178.3438,864.625 177.75,864.3594 Q177.1563,864.0781 176.5313,864.0781 Q175.1875,864.0781 174.5,865.1563 Q173.8125,866.2188 173.8125,868.3125 Q173.8125,870.4063 174.5,871.4844 Q175.1875,872.5469 176.5313,872.5469 Q177.1563,872.5469 177.75,872.2813 Q178.3438,872 178.9688,871.4219 L178.9688,874.1406 Z " fill="#000000"/><text fill="#000000" font-family="sans-serif" font-size="14" lengthAdjust="spacing" textLength="170" x="190" y="873.3467">CloudUserInstanceTrace</text><line style="stroke:#181818;stroke-width:0.5;" x1="162" x2="362" y1="884.5" y2="884.5"/><text fill="#000000" font-family="sans-serif" font-size="14" lengthAdjust="spacing" textLength="75" x="167" y="901.4951">#job: Job_t</text><line style="stroke:#181818;stroke-width:0.5;" x1="162" x2="362" y1="908.7969" y2="908.7969"/></g><!--reverse link User to UserAppReference--><g id="link_User_UserAppReference"><path codeLine="84" d="M886,157.09 C886,293.22 886,592.24 886,703.52 " fill="none" id="User-backto-UserAppReference" style="stroke:#181818;stroke-width:1.0;"/><polygon fill="#181818" points="886,145.09,882,151.09,886,157.09,890,151.09,886,145.09" style="stroke:#181818;stroke-width:1.0;"/><text fill="#000000" font-family="sans-serif" font-size="13" lengthAdjust="spacing" textLength="8" x="861.9125" y="164.6607">1</text><text fill="#000000" font-family="sans-serif" font-size="13" lengthAdjust="spacing" textLength="23" x="853.1453" y="692.6418">1..*</text></g><!--reverse link User to CloudUser--><g id="link_User_CloudUser"><path codeLine="85" d="M1081,163.06 C1081,224.37 1081,297.68 1081,359.01 " fill="none" id="User-backto-CloudUser" style="stroke:#181818;stroke-width:1.0;"/><polygon fill="none" points="1081,145.06,1075,163.06,1087,163.06,1081,145.06" style="stroke:#181818;stroke-width:1.0;"/></g><!--reverse link UserInstance to CloudUserInstance--><g id="link_UserInstance_CloudUserInstance"><path codeLine="86" d="M262,170.91 C262,188.97 262,191.24 262,212.36 " fill="none" id="UserInstance-backto-CloudUserInstance" style="stroke:#181818;stroke-width:1.0;"/><polygon fill="none" points="262,152.91,256,170.91,268,170.91,262,152.91" style="stroke:#181818;stroke-width:1.0;"/></g><!--reverse link CloudUserInstance to CloudUserInstancePriority--><g id="link_CloudUserInstance_CloudUserInstancePriority"><path codeLine="87" d="M262,653.77 C262,675.73 262,678.23 262,695.36 " fill="none" id="CloudUserInstance-backto-CloudUserInstancePriority" style="stroke:#181818;stroke-width:1.0;"/><polygon fill="none" points="262,635.77,256,653.77,268,653.77,262,635.77" style="stroke:#181818;stroke-width:1.0;"/></g><!--reverse link CloudUserInstancePriority to CloudUserInstanceTrace--><g id="link_CloudUserInstancePriority_CloudUserInstanceTrace"><path codeLine="88" d="M262,810.84 C262,830.51 262,834.66 262,852.28 " fill="none" id="CloudUserInstancePriority-backto-CloudUserInstanceTrace" style="stroke:#181818;stroke-width:1.0;"/><polygon fill="none" points="262,792.84,256,810.84,268,810.84,262,792.84" style="stroke:#181818;stroke-width:1.0;"/></g><!--reverse link CloudUser to UserAppReference--><g id="link_CloudUser_UserAppReference"><path codeLine="89" d="M967.5,501.31 C967.5,565.43 967.5,649.36 967.5,703.35 " fill="none" id="CloudUser-backto-UserAppReference" style="stroke:#181818;stroke-width:1.0;"/><polygon fill="#181818" points="967.5,489.31,963.5,495.31,967.5,501.31,971.5,495.31,967.5,489.31" style="stroke:#181818;stroke-width:1.0;"/><text fill="#000000" font-family="sans-serif" font-size="13" lengthAdjust="spacing" textLength="8" x="930.5953" y="508.8714">1</text><text fill="#000000" font-family="sans-serif" font-size="13" lengthAdjust="spacing" textLength="23" x="939.6875" y="692.7445">1..*</text></g><!--reverse link CloudUser to UserVmReference--><g id="link_CloudUser_UserVmReference"><path codeLine="90" d="M1203,501.31 C1203,562.32 1203,640.14 1203,695.22 " fill="none" id="CloudUser-backto-UserVmReference" style="stroke:#181818;stroke-width:1.0;"/><polygon fill="#181818" points="1203,489.31,1199,495.31,1203,501.31,1207,495.31,1203,489.31" style="stroke:#181818;stroke-width:1.0;"/><text fill="#000000" font-family="sans-serif" font-size="13" lengthAdjust="spacing" textLength="8" x="1190.3813" y="508.8714">1</text><text fill="#000000" font-family="sans-serif" font-size="13" lengthAdjust="spacing" textLength="23" x="1178.3828" y="684.3741">1..*</text></g><!--SRC=[bLHDSzCm4BtxL-oubxJ5WPIU0fSqm4oOIIVJXd1Wc8niYqHWIKQIquQF_yvAjbKvJXYuP9ptTbVlxKghlp5H4aKuP0NHUcACOcbbw2oJufxzeF0YqZwaO8AQVKb1AhELKUHIu8EcAlePdO6bnd2F5SG6_ugApuGsH6HKZu494rtYBmQRILaMB2E6IJ4WPRamQWm1zgoVUewv6zf9P2AdZpKvTXgGlADVgAAOzQgElwruaA87vxMEtwtqQI6h_F_rhvWo5Idc9DjYHmOxxXnqqICc4BgZmYmPfw6fWsf8WFFMs5fnxygRMZ6ZdbBwlWxRWVOIRFGDqRJJwIZfc-mK2G_76h3ZTOskPYJwTP83jzt2RR2hMbdWZMzzqfr4pQFhb6ANgxesQ_8FO19C-zDdvxKzQIgBWcREzLapnrlw43J3wuT_lfJzYnJukeHTfqjEq8eVqPC09u_tXYZNhRKPzJguDbSjPaEhj0PVTa6TALRQYZLxxSlCSlzPyNTCCBsb-Mgk0tI2KdOqBEBPVA8Ksv7Yohd4kJ1k3x3CJB1cmW7uLkGzp0P-94U2Zu5f8oD5D9Moi52hka7SyrnAGmfluz9Etq_8DZlyZxIYtokgpOhFzGQFcw_T3Py_CJZka9ei5iZfgfPo9CrDGLR6JSV92h7h1XiEXmDxLOGq51JRRCquNcwPhZSkuA8r1EyZF90z62bnbc8FdEA6pVLpqYva7SF9oxPGJ2fczkunfLD5SsQy8APlQiHkYGRJrBHW9_nlDtgfYBlMPrzbEeRtCbtR9sqZ88PH31T9OZ-6mukultzSsEjV6FAqSiFY1vn_HJtaHA3lm4dcH6BjoiCGZw2nOfq07F5oAZW-t9X_0000]--></g></svg>