<?xml version="1.0" encoding="us-ascii" standalone="no"?><svg xmlns="http://www.w3.org/2000/svg" xmlns:xlink="http://www.w3.org/1999/xlink" contentStyleType="text/css" height="506px" preserveAspectRatio="none" style="width:534px;height:506px;background:#FFFFFF;" version="1.1" viewBox="0 0 534 506" width="534px" zoomAndPan="magnify"><defs/><g><!--class VirtualMachine--><g id="elem_VirtualMachine"><rect codeLine="4" fill="#F1F1F1" height="145.7813" id="VirtualMachine" rx="2.5" ry="2.5" style="stroke:#181818;stroke-width:0.5;" width="151" x="96.5" y="180.19"/><ellipse cx="120.05" cy="196.19" fill="#ADD1B2" rx="11" ry="11" style="stroke:#181818;stroke-width:1.0;"/><path d="M123.0188,201.8306 Q122.4406,202.1275 121.8,202.2681 Q121.1594,202.4244 120.4563,202.4244 Q117.9563,202.4244 116.6281,200.7838 Q115.3156,199.1275 115.3156,196.0025 Q115.3156,192.8775 116.6281,191.2213 Q117.9563,189.565 120.4563,189.565 Q121.1594,189.565 121.8,189.7213 Q122.4563,189.8775 123.0188,190.1744 L123.0188,192.8931 Q122.3938,192.315 121.8,192.0494 Q121.2063,191.7681 120.5813,191.7681 Q119.2375,191.7681 118.55,192.8463 Q117.8625,193.9088 117.8625,196.0025 Q117.8625,198.0963 118.55,199.1744 Q119.2375,200.2369 120.5813,200.2369 Q121.2063,200.2369 121.8,199.9713 Q122.3938,199.69 123.0188,199.1119 L123.0188,201.8306 Z " fill="#000000"/><text fill="#000000" font-family="sans-serif" font-size="14" lengthAdjust="spacing" textLength="100" x="135.95" y="201.0367">VirtualMachine</text><line style="stroke:#181818;stroke-width:0.5;" x1="97.5" x2="246.5" y1="212.19" y2="212.19"/><text fill="#000000" font-family="sans-serif" font-size="14" lengthAdjust="spacing" textLength="84" x="102.5" y="229.1851">-type: String</text><text fill="#000000" font-family="sans-serif" font-size="14" lengthAdjust="spacing" textLength="92" x="102.5" y="245.482">-cost: double</text><text fill="#000000" font-family="sans-serif" font-size="14" lengthAdjust="spacing" textLength="103" x="102.5" y="261.7789">-numCores: int</text><text fill="#000000" font-family="sans-serif" font-size="14" lengthAdjust="spacing" textLength="87" x="102.5" y="278.0757">-scu: double</text><text fill="#000000" font-family="sans-serif" font-size="14" lengthAdjust="spacing" textLength="111" x="102.5" y="294.3726">-diskGB: double</text><text fill="#000000" font-family="sans-serif" font-size="14" lengthAdjust="spacing" textLength="139" x="102.5" y="310.6695">-memoryGB: double</text><line style="stroke:#181818;stroke-width:0.5;" x1="97.5" x2="246.5" y1="317.9713" y2="317.9713"/></g><!--class VmInstance--><g id="elem_VmInstance"><rect codeLine="14" fill="#F1F1F1" height="113.1875" id="VmInstance" rx="2.5" ry="2.5" style="stroke:#181818;stroke-width:0.5;" width="159" x="282.5" y="196.49"/><ellipse cx="318.2" cy="212.49" fill="#ADD1B2" rx="11" ry="11" style="stroke:#181818;stroke-width:1.0;"/><path d="M321.1688,218.1306 Q320.5906,218.4275 319.95,218.5681 Q319.3094,218.7244 318.6063,218.7244 Q316.1063,218.7244 314.7781,217.0838 Q313.4656,215.4275 313.4656,212.3025 Q313.4656,209.1775 314.7781,207.5213 Q316.1063,205.865 318.6063,205.865 Q319.3094,205.865 319.95,206.0213 Q320.6063,206.1775 321.1688,206.4744 L321.1688,209.1931 Q320.5438,208.615 319.95,208.3494 Q319.3563,208.0681 318.7313,208.0681 Q317.3875,208.0681 316.7,209.1463 Q316.0125,210.2088 316.0125,212.3025 Q316.0125,214.3963 316.7,215.4744 Q317.3875,216.5369 318.7313,216.5369 Q319.3563,216.5369 319.95,216.2713 Q320.5438,215.99 321.1688,215.4119 L321.1688,218.1306 Z " fill="#000000"/><text fill="#000000" font-family="sans-serif" font-size="14" lengthAdjust="spacing" textLength="81" x="336.8" y="217.3367">VmInstance</text><line style="stroke:#181818;stroke-width:0.5;" x1="283.5" x2="440.5" y1="228.49" y2="228.49"/><text fill="#000000" font-family="sans-serif" font-size="14" lengthAdjust="spacing" textLength="147" x="288.5" y="245.4851">-vmInstanceID: String</text><text fill="#000000" font-family="sans-serif" font-size="14" lengthAdjust="spacing" textLength="108" x="288.5" y="261.782">-vmType: String</text><text fill="#000000" font-family="sans-serif" font-size="14" lengthAdjust="spacing" textLength="145" x="288.5" y="278.0789">-instanceNumber: int</text><text fill="#000000" font-family="sans-serif" font-size="14" lengthAdjust="spacing" textLength="99" x="288.5" y="294.3757">-userID: String</text><line style="stroke:#181818;stroke-width:0.5;" x1="283.5" x2="440.5" y1="301.6775" y2="301.6775"/></g><!--class tVmState--><g id="elem_tVmState"><rect codeLine="22" fill="#F1F1F1" height="113.1875" id="tVmState" rx="2.5" ry="2.5" style="stroke:#181818;stroke-width:0.5;" width="110" x="307" y="385.97"/><ellipse cx="328.75" cy="401.97" fill="#EB937F" rx="11" ry="11" style="stroke:#181818;stroke-width:1.0;"/><path d="M332.8594,407.97 L325.1406,407.97 L325.1406,395.5794 L332.8594,395.5794 L332.8594,397.7356 L327.5938,397.7356 L327.5938,400.4075 L332.3594,400.4075 L332.3594,402.5638 L327.5938,402.5638 L327.5938,405.8138 L332.8594,405.8138 L332.8594,407.97 Z " fill="#000000"/><text fill="#000000" font-family="sans-serif" font-size="14" lengthAdjust="spacing" textLength="63" x="344.25" y="406.8167">tVmState</text><line style="stroke:#181818;stroke-width:0.5;" x1="308" x2="416" y1="417.97" y2="417.97"/><text fill="#000000" font-family="sans-serif" font-size="14" lengthAdjust="spacing" textLength="56" x="313" y="434.9651">+vmIdle</text><text fill="#000000" font-family="sans-serif" font-size="14" lengthAdjust="spacing" textLength="98" x="313" y="451.262">+vmAccepted</text><text fill="#000000" font-family="sans-serif" font-size="14" lengthAdjust="spacing" textLength="90" x="313" y="467.5589">+vmRunning</text><text fill="#000000" font-family="sans-serif" font-size="14" lengthAdjust="spacing" textLength="90" x="313" y="483.8557">+vmFinished</text><line style="stroke:#181818;stroke-width:0.5;" x1="308" x2="416" y1="491.1575" y2="491.1575"/></g><!--class VmInstanceCollection--><g id="elem_VmInstanceCollection"><rect codeLine="30" fill="#F1F1F1" height="113.1875" id="VmInstanceCollection" rx="2.5" ry="2.5" style="stroke:#181818;stroke-width:0.5;" width="520" x="7" y="7"/><ellipse cx="188.25" cy="23" fill="#ADD1B2" rx="11" ry="11" style="stroke:#181818;stroke-width:1.0;"/><path d="M191.2188,28.6406 Q190.6406,28.9375 190,29.0781 Q189.3594,29.2344 188.6563,29.2344 Q186.1563,29.2344 184.8281,27.5938 Q183.5156,25.9375 183.5156,22.8125 Q183.5156,19.6875 184.8281,18.0313 Q186.1563,16.375 188.6563,16.375 Q189.3594,16.375 190,16.5313 Q190.6563,16.6875 191.2188,16.9844 L191.2188,19.7031 Q190.5938,19.125 190,18.8594 Q189.4063,18.5781 188.7813,18.5781 Q187.4375,18.5781 186.75,19.6563 Q186.0625,20.7188 186.0625,22.8125 Q186.0625,24.9063 186.75,25.9844 Q187.4375,27.0469 188.7813,27.0469 Q189.4063,27.0469 190,26.7813 Q190.5938,26.5 191.2188,25.9219 L191.2188,28.6406 Z " fill="#000000"/><text fill="#000000" font-family="sans-serif" font-size="14" lengthAdjust="spacing" textLength="149" x="208.75" y="27.8467">VmInstanceCollection</text><line style="stroke:#181818;stroke-width:0.5;" x1="8" x2="526" y1="39" y2="39"/><text fill="#000000" font-family="sans-serif" font-size="14" lengthAdjust="spacing" textLength="107" x="13" y="55.9951">-nRentTime: int</text><line style="stroke:#181818;stroke-width:0.5;" x1="8" x2="526" y1="63.2969" y2="63.2969"/><text fill="#000000" font-family="sans-serif" font-size="14" lengthAdjust="spacing" textLength="508" x="13" y="80.292">-generateInstances(userID: String, numInstances: int, total: int, offset: int)</text><text fill="#000000" font-family="sans-serif" font-size="14" lengthAdjust="spacing" textLength="283" x="13" y="96.5889">+getVmInstance(int nIndex): VmInstance</text><text fill="#000000" font-family="sans-serif" font-size="14" lengthAdjust="spacing" textLength="170" x="13" y="112.8857">+getNumInstances(): int</text></g><!--link VmInstance to tVmState--><g id="link_VmInstance_tVmState"><path codeLine="38" d="M362,309.93 C362,333.92 362,355.78 362,379.75 " fill="none" id="VmInstance-to-tVmState" style="stroke:#181818;stroke-width:1.0;"/><polygon fill="#181818" points="362,385.75,366,376.75,362,380.75,358,376.75,362,385.75" style="stroke:#181818;stroke-width:1.0;"/><text fill="#000000" font-family="sans-serif" font-size="13" lengthAdjust="spacing" textLength="42" x="319" y="343.9069">- state</text></g><!--link VmInstanceCollection to VmInstance--><g id="link_VmInstanceCollection_VmInstance"><path codeLine="39" d="M362,132.45 C362,156.43 362,166.29 362,190.27 " fill="none" id="VmInstanceCollection-VmInstance" style="stroke:#181818;stroke-width:1.0;"/><polygon fill="#181818" points="362,120.45,358,126.45,362,132.45,366,126.45,362,120.45" style="stroke:#181818;stroke-width:1.0;"/><polygon fill="#181818" points="362,196.27,366,187.27,362,191.27,358,187.27,362,196.27" style="stroke:#181818;stroke-width:1.0;"/><text fill="#000000" font-family="sans-serif" font-size="13" lengthAdjust="spacing" textLength="90" x="271" y="154.4269">- vmInstances</text></g><!--link VmInstanceCollection to VirtualMachine--><g id="link_VmInstanceCollection_VirtualMachine"><path codeLine="40" d="M172,120.45 C172,139.09 172,154.07 172,173.76 " fill="none" id="VmInstanceCollection-to-VirtualMachine" style="stroke:#181818;stroke-width:1.0;"/><polygon fill="#181818" points="172,179.76,176,170.76,172,174.76,168,170.76,172,179.76" style="stroke:#181818;stroke-width:1.0;"/><text fill="#000000" font-family="sans-serif" font-size="13" lengthAdjust="spacing" textLength="61" x="110" y="146.1669">- vmBase</text></g><!--SRC=[RLAnRW8n3DtlAo8cQ3cfymsLe5Mh6ye0Y3ta34HS71GxgBJglzSNu0WIcv_zNjwB4zfRFEYWdJAj9fem1xkE3BNnkB0_e5uAwYcjHU3J0PGFlFD5aIHgPGD7tNvfivDvyLkKgYDLQY5duLQWySILQdnSjo0Getlp0QXI5bamcPXD6qlxpsdMSE1yE6MjlzxPrKYiqPnTZpsitpFterlUnx4NrYowDOHhYaWGCfsOW0HLl78BrjmvF7SEZGJeYeanS61e4fX7n4xKrHyMBUray23ccszRC6mzfi0u1-IbTN3Di0M486PNFWtlKusxtVN3f1ehzgpRI-qt6m9EO2Hfji0tyw4q5TROmFUeodUNUBFiuE7e74XkSAEfiYbV-tLKIjujxUNHxTHJATpRf5A3_7bey5YLH7U_wIASQeB1Fm00]--></g></svg>